<?xml version="1.0" encoding="UTF-8" standalone="no"?>
<!DOCTYPE svg PUBLIC "-//W3C//DTD SVG 1.1//EN"
 "http://www.w3.org/Graphics/SVG/1.1/DTD/svg11.dtd">
<!-- Generated by graphviz version 2.38.0 (20140413.2041)
 -->
<!-- Title: SimpleMTT Pages: 1 -->
<svg width="3942pt" height="612pt"
 viewBox="0.00 0.00 3942.00 612.00" xmlns="http://www.w3.org/2000/svg" xmlns:xlink="http://www.w3.org/1999/xlink">
<g id="graph0" class="graph" transform="scale(1 1) rotate(0) translate(4 608)">
<title>SimpleMTT</title>
<polygon fill="white" stroke="none" points="-4,4 -4,-608 3938,-608 3938,4 -4,4"/>
<g id="clust3" class="cluster"><title>cluster_asset_sorter</title>
<polygon fill="none" stroke="black" points="2797,-340 2797,-495 3497,-495 3497,-340 2797,-340"/>
<text text-anchor="middle" x="3147" y="-479.8" font-family="Times New Roman,serif" font-size="14.00">Sorter Tool for Individual Assets</text>
</g>
<g id="clust1" class="cluster"><title>cluster_anchored_pca_in</title>
<polygon fill="none" stroke="black" points="396,-101 396,-392 1182,-392 1182,-101 396,-101"/>
<text text-anchor="middle" x="789" y="-376.8" font-family="Times New Roman,serif" font-size="14.00">PCA Fit Tool</text>
</g>
<g id="clust2" class="cluster"><title>cluster_anchored__numeric_in</title>
<polygon fill="none" stroke="black" points="1627,-272 1627,-563 2471,-563 2471,-272 1627,-272"/>
<text text-anchor="middle" x="2049" y="-547.8" font-family="Times New Roman,serif" font-size="14.00">Numeric Fit Tool</text>
</g>
<!-- PCA_Tool -->
<g id="node1" class="node"><title>PCA_Tool</title>
<polygon fill="none" stroke="blue" points="690,-204.5 690,-319.5 980,-319.5 980,-204.5 690,-204.5"/>
<text text-anchor="middle" x="794.5" y="-258.3" font-family="Times New Roman,serif" font-size="14.00">PCA Factor Equity Volatility Tool</text>
<polyline fill="none" stroke="blue" points="899,-204.5 899,-319.5 "/>
<text text-anchor="middle" x="939.5" y="-304.3" font-family="Times New Roman,serif" font-size="14.00">PCA bit</text>
<polyline fill="none" stroke="blue" points="899,-296.5 980,-296.5 "/>
<text text-anchor="middle" x="939.5" y="-281.3" font-family="Times New Roman,serif" font-size="14.00">NONE</text>
<polyline fill="none" stroke="blue" points="899,-273.5 980,-273.5 "/>
<text text-anchor="middle" x="939.5" y="-258.3" font-family="Times New Roman,serif" font-size="14.00">Real World</text>
<polyline fill="none" stroke="blue" points="899,-250.5 980,-250.5 "/>
<text text-anchor="middle" x="939.5" y="-235.3" font-family="Times New Roman,serif" font-size="14.00">E_ALL</text>
<polyline fill="none" stroke="blue" points="899,-227.5 980,-227.5 "/>
<text text-anchor="middle" x="939.5" y="-212.3" font-family="Times New Roman,serif" font-size="14.00">NONE</text>
</g>
<!-- Output_Combined_PCA -->
<g id="node18" class="node"><title>Output_Combined_PCA</title>
<polygon fill="none" stroke="blue" points="1174,-315 1017,-315 1017,-279 1174,-279 1174,-315"/>
<text text-anchor="middle" x="1095.5" y="-293.3" font-family="Times New Roman,serif" font-size="14.00">Output_Combined_PCA</text>
</g>
<!-- PCA_Tool&#45;&gt;Output_Combined_PCA -->
<g id="edge1" class="edge"><title>PCA_Tool&#45;&gt;Output_Combined_PCA</title>
<path fill="none" stroke="black" d="M980.366,-281.547C989.343,-282.762 998.222,-283.964 1006.83,-285.129"/>
<polygon fill="black" stroke="black" points="1006.41,-288.605 1016.79,-286.478 1007.35,-281.668 1006.41,-288.605"/>
</g>
<!-- NumFit_Tool -->
<g id="node2" class="node"><title>NumFit_Tool</title>
<polygon fill="none" stroke="blue" points="1921,-348.5 1921,-463.5 2250,-463.5 2250,-348.5 1921,-348.5"/>
<text text-anchor="middle" x="2035" y="-402.3" font-family="Times New Roman,serif" font-size="14.00">Numeric Factor Equity Volatility Tool</text>
<polyline fill="none" stroke="blue" points="2149,-348.5 2149,-463.5 "/>
<text text-anchor="middle" x="2199.5" y="-448.3" font-family="Times New Roman,serif" font-size="14.00">Numeric Fit bit</text>
<polyline fill="none" stroke="blue" points="2149,-440.5 2250,-440.5 "/>
<text text-anchor="middle" x="2199.5" y="-425.3" font-family="Times New Roman,serif" font-size="14.00">NONE</text>
<polyline fill="none" stroke="blue" points="2149,-417.5 2250,-417.5 "/>
<text text-anchor="middle" x="2199.5" y="-402.3" font-family="Times New Roman,serif" font-size="14.00">Real World</text>
<polyline fill="none" stroke="blue" points="2149,-394.5 2250,-394.5 "/>
<text text-anchor="middle" x="2199.5" y="-379.3" font-family="Times New Roman,serif" font-size="14.00">E_ALL</text>
<polyline fill="none" stroke="blue" points="2149,-371.5 2250,-371.5 "/>
<text text-anchor="middle" x="2199.5" y="-356.3" font-family="Times New Roman,serif" font-size="14.00">NONE</text>
</g>
<!-- Output_Combined_Numeric -->
<g id="node24" class="node"><title>Output_Combined_Numeric</title>
<polygon fill="none" stroke="blue" points="2463,-424 2287,-424 2287,-388 2463,-388 2463,-424"/>
<text text-anchor="middle" x="2375" y="-402.3" font-family="Times New Roman,serif" font-size="14.00">Output_Combined_Numeric</text>
</g>
<!-- NumFit_Tool&#45;&gt;Output_Combined_Numeric -->
<g id="edge2" class="edge"><title>NumFit_Tool&#45;&gt;Output_Combined_Numeric</title>
<path fill="none" stroke="black" d="M2250.41,-406C2259.28,-406 2268.05,-406 2276.58,-406"/>
<polygon fill="black" stroke="black" points="2276.85,-409.5 2286.85,-406 2276.85,-402.5 2276.85,-409.5"/>
</g>
<!-- ConstVol_Asset_Sorter -->
<g id="node3" class="node"><title>ConstVol_Asset_Sorter</title>
<polygon fill="none" stroke="blue" points="2979,-348.5 2979,-463.5 3300,-463.5 3300,-348.5 2979,-348.5"/>
<text text-anchor="middle" x="3089" y="-402.3" font-family="Times New Roman,serif" font-size="14.00">Factor Equity Volatility Asset Sorter</text>
<polyline fill="none" stroke="blue" points="3199,-348.5 3199,-463.5 "/>
<text text-anchor="middle" x="3249.5" y="-448.3" font-family="Times New Roman,serif" font-size="14.00">Numeric Fit bit</text>
<polyline fill="none" stroke="blue" points="3199,-440.5 3300,-440.5 "/>
<text text-anchor="middle" x="3249.5" y="-425.3" font-family="Times New Roman,serif" font-size="14.00">NONE</text>
<polyline fill="none" stroke="blue" points="3199,-417.5 3300,-417.5 "/>
<text text-anchor="middle" x="3249.5" y="-402.3" font-family="Times New Roman,serif" font-size="14.00">Real World</text>
<polyline fill="none" stroke="blue" points="3199,-394.5 3300,-394.5 "/>
<text text-anchor="middle" x="3249.5" y="-379.3" font-family="Times New Roman,serif" font-size="14.00">~200 assets</text>
<polyline fill="none" stroke="blue" points="3199,-371.5 3300,-371.5 "/>
<text text-anchor="middle" x="3249.5" y="-356.3" font-family="Times New Roman,serif" font-size="14.00">NONE</text>
</g>
<!-- Output_FactorLoadings -->
<g id="node26" class="node"><title>Output_FactorLoadings</title>
<polygon fill="none" stroke="blue" points="3489,-456 3337,-456 3337,-420 3489,-420 3489,-456"/>
<text text-anchor="middle" x="3413" y="-434.3" font-family="Times New Roman,serif" font-size="14.00">Output_FactorLoadings</text>
</g>
<!-- ConstVol_Asset_Sorter&#45;&gt;Output_FactorLoadings -->
<g id="edge25" class="edge"><title>ConstVol_Asset_Sorter&#45;&gt;Output_FactorLoadings</title>
<path fill="none" stroke="black" d="M3300,-424.8C3309.13,-425.875 3318.11,-426.933 3326.77,-427.954"/>
<polygon fill="black" stroke="black" points="3326.43,-431.439 3336.77,-429.133 3327.25,-424.487 3326.43,-431.439"/>
</g>
<!-- Output_ConstantVol -->
<g id="node27" class="node"><title>Output_ConstantVol</title>
<polygon fill="none" stroke="blue" points="3480,-394 3346,-394 3346,-358 3480,-358 3480,-394"/>
<text text-anchor="middle" x="3413" y="-372.3" font-family="Times New Roman,serif" font-size="14.00">Output_ConstantVol</text>
</g>
<!-- ConstVol_Asset_Sorter&#45;&gt;Output_ConstantVol -->
<g id="edge26" class="edge"><title>ConstVol_Asset_Sorter&#45;&gt;Output_ConstantVol</title>
<path fill="none" stroke="black" d="M3300,-388.375C3312.29,-387.018 3324.3,-385.69 3335.63,-384.438"/>
<polygon fill="black" stroke="black" points="3336.28,-387.889 3345.83,-383.312 3335.51,-380.931 3336.28,-387.889"/>
</g>
<!-- Tool_Settings_PCA -->
<g id="node4" class="node"><title>Tool_Settings_PCA</title>
<polygon fill="none" stroke="green" points="0,-134.5 0,-249.5 367,-249.5 367,-134.5 0,-134.5"/>
<text text-anchor="middle" x="103" y="-188.3" font-family="Times New Roman,serif" font-size="14.00">Settings.Equity.ConstantVol.PCA</text>
<polyline fill="none" stroke="green" points="206,-134.5 206,-249.5 "/>
<text text-anchor="middle" x="286.5" y="-234.3" font-family="Times New Roman,serif" font-size="14.00">Best_Views_ConstantVol</text>
<polyline fill="none" stroke="green" points="206,-226.5 367,-226.5 "/>
<text text-anchor="middle" x="286.5" y="-211.3" font-family="Times New Roman,serif" font-size="14.00">NONE</text>
<polyline fill="none" stroke="green" points="206,-203.5 367,-203.5 "/>
<text text-anchor="middle" x="286.5" y="-188.3" font-family="Times New Roman,serif" font-size="14.00">Real World</text>
<polyline fill="none" stroke="green" points="206,-180.5 367,-180.5 "/>
<text text-anchor="middle" x="286.5" y="-165.3" font-family="Times New Roman,serif" font-size="14.00">E_ALL</text>
<polyline fill="none" stroke="green" points="206,-157.5 367,-157.5 "/>
<text text-anchor="middle" x="286.5" y="-142.3" font-family="Times New Roman,serif" font-size="14.00">NONE</text>
</g>
<!-- PCA_Tool_Settings -->
<g id="node15" class="node"><title>PCA_Tool_Settings</title>
<polygon fill="none" stroke="blue" points="574.5,-199 482.5,-199 482.5,-163 574.5,-163 574.5,-199"/>
<text text-anchor="middle" x="528.5" y="-177.3" font-family="Times New Roman,serif" font-size="14.00">Tool Settings</text>
</g>
<!-- Tool_Settings_PCA&#45;&gt;PCA_Tool_Settings -->
<g id="edge15" class="edge"><title>Tool_Settings_PCA&#45;&gt;PCA_Tool_Settings</title>
<path fill="none" stroke="black" d="M367.047,-186.146C405.377,-184.916 442.967,-183.711 472.118,-182.776"/>
<polygon fill="black" stroke="black" points="472.579,-186.263 482.462,-182.444 472.355,-179.267 472.579,-186.263"/>
</g>
<!-- Tool_Settings_Numeric -->
<g id="node5" class="node"><title>Tool_Settings_Numeric</title>
<polygon fill="none" stroke="green" points="1211,-488.5 1211,-603.5 1598,-603.5 1598,-488.5 1211,-488.5"/>
<text text-anchor="middle" x="1324" y="-542.3" font-family="Times New Roman,serif" font-size="14.00">Settings.Equity.ConstantVol.Numeric</text>
<polyline fill="none" stroke="green" points="1437,-488.5 1437,-603.5 "/>
<text text-anchor="middle" x="1517.5" y="-588.3" font-family="Times New Roman,serif" font-size="14.00">Best_Views_ConstantVol</text>
<polyline fill="none" stroke="green" points="1437,-580.5 1598,-580.5 "/>
<text text-anchor="middle" x="1517.5" y="-565.3" font-family="Times New Roman,serif" font-size="14.00">NONE</text>
<polyline fill="none" stroke="green" points="1437,-557.5 1598,-557.5 "/>
<text text-anchor="middle" x="1517.5" y="-542.3" font-family="Times New Roman,serif" font-size="14.00">Real World</text>
<polyline fill="none" stroke="green" points="1437,-534.5 1598,-534.5 "/>
<text text-anchor="middle" x="1517.5" y="-519.3" font-family="Times New Roman,serif" font-size="14.00">E_ALL</text>
<polyline fill="none" stroke="green" points="1437,-511.5 1598,-511.5 "/>
<text text-anchor="middle" x="1517.5" y="-496.3" font-family="Times New Roman,serif" font-size="14.00">NONE</text>
</g>
<!-- Numeric_Tool_Settings -->
<g id="node21" class="node"><title>Numeric_Tool_Settings</title>
<polygon fill="none" stroke="blue" points="1805.5,-532 1713.5,-532 1713.5,-496 1805.5,-496 1805.5,-532"/>
<text text-anchor="middle" x="1759.5" y="-510.3" font-family="Times New Roman,serif" font-size="14.00">Tool Settings</text>
</g>
<!-- Tool_Settings_Numeric&#45;&gt;Numeric_Tool_Settings -->
<g id="edge20" class="edge"><title>Tool_Settings_Numeric&#45;&gt;Numeric_Tool_Settings</title>
<path fill="none" stroke="black" d="M1598.01,-528.549C1636.52,-525.058 1674,-521.66 1703.05,-519.027"/>
<polygon fill="black" stroke="black" points="1703.71,-522.481 1713.35,-518.093 1703.08,-515.51 1703.71,-522.481"/>
</g>
<!-- UncVol_Combined -->
<g id="node6" class="node"><title>UncVol_Combined</title>
<polygon fill="none" stroke="green" points="21,-402.5 21,-517.5 346,-517.5 346,-402.5 21,-402.5"/>
<text text-anchor="middle" x="103" y="-456.3" font-family="Times New Roman,serif" font-size="14.00">Targets.Vol.Unconditional</text>
<polyline fill="none" stroke="green" points="185,-402.5 185,-517.5 "/>
<text text-anchor="middle" x="265.5" y="-502.3" font-family="Times New Roman,serif" font-size="14.00">Best_Views_ConstantVol</text>
<polyline fill="none" stroke="green" points="185,-494.5 346,-494.5 "/>
<text text-anchor="middle" x="265.5" y="-479.3" font-family="Times New Roman,serif" font-size="14.00">NONE</text>
<polyline fill="none" stroke="green" points="185,-471.5 346,-471.5 "/>
<text text-anchor="middle" x="265.5" y="-456.3" font-family="Times New Roman,serif" font-size="14.00">Real World</text>
<polyline fill="none" stroke="green" points="185,-448.5 346,-448.5 "/>
<text text-anchor="middle" x="265.5" y="-433.3" font-family="Times New Roman,serif" font-size="14.00">E_ALL</text>
<polyline fill="none" stroke="green" points="185,-425.5 346,-425.5 "/>
<text text-anchor="middle" x="265.5" y="-410.3" font-family="Times New Roman,serif" font-size="14.00">NONE</text>
</g>
<!-- PCA_UncVol_Combined -->
<g id="node13" class="node"><title>PCA_UncVol_Combined</title>
<polygon fill="none" stroke="blue" points="653,-307 404,-307 404,-271 653,-271 653,-307"/>
<text text-anchor="middle" x="528.5" y="-285.3" font-family="Times New Roman,serif" font-size="14.00">Uncondional Volatility Targets Combined</text>
</g>
<!-- UncVol_Combined&#45;&gt;PCA_UncVol_Combined -->
<g id="edge13" class="edge"><title>UncVol_Combined&#45;&gt;PCA_UncVol_Combined</title>
<path fill="none" stroke="black" d="M346.226,-410.19C353.658,-405.01 360.649,-399.298 367,-393 392.966,-367.25 368.186,-339.741 396,-316 397.341,-314.856 398.717,-313.756 400.125,-312.698"/>
<polygon fill="black" stroke="black" points="402.148,-315.556 408.522,-307.092 398.261,-309.734 402.148,-315.556"/>
</g>
<!-- Numeric_UncVol_Combined -->
<g id="node19" class="node"><title>Numeric_UncVol_Combined</title>
<polygon fill="none" stroke="blue" points="1884,-478 1635,-478 1635,-442 1884,-442 1884,-478"/>
<text text-anchor="middle" x="1759.5" y="-456.3" font-family="Times New Roman,serif" font-size="14.00">Uncondional Volatility Targets Combined</text>
</g>
<!-- UncVol_Combined&#45;&gt;Numeric_UncVol_Combined -->
<g id="edge18" class="edge"><title>UncVol_Combined&#45;&gt;Numeric_UncVol_Combined</title>
<path fill="none" stroke="black" d="M346.334,-460C403.568,-460 468.398,-460 527.5,-460 527.5,-460 527.5,-460 1405.5,-460 1477.93,-460 1558.72,-460 1624.71,-460"/>
<polygon fill="black" stroke="black" points="1624.75,-463.5 1634.75,-460 1624.75,-456.5 1624.75,-463.5"/>
</g>
<!-- Correlation_Combined -->
<g id="node7" class="node"><title>Correlation_Combined</title>
<polygon fill="none" stroke="green" points="0,-268.5 0,-383.5 367,-383.5 367,-268.5 0,-268.5"/>
<text text-anchor="middle" x="103" y="-322.3" font-family="Times New Roman,serif" font-size="14.00">Targets.Correlation.Unconditional</text>
<polyline fill="none" stroke="green" points="206,-268.5 206,-383.5 "/>
<text text-anchor="middle" x="286.5" y="-368.3" font-family="Times New Roman,serif" font-size="14.00">Best_Views_ConstantVol</text>
<polyline fill="none" stroke="green" points="206,-360.5 367,-360.5 "/>
<text text-anchor="middle" x="286.5" y="-345.3" font-family="Times New Roman,serif" font-size="14.00">NONE</text>
<polyline fill="none" stroke="green" points="206,-337.5 367,-337.5 "/>
<text text-anchor="middle" x="286.5" y="-322.3" font-family="Times New Roman,serif" font-size="14.00">Real World</text>
<polyline fill="none" stroke="green" points="206,-314.5 367,-314.5 "/>
<text text-anchor="middle" x="286.5" y="-299.3" font-family="Times New Roman,serif" font-size="14.00">E_ALL</text>
<polyline fill="none" stroke="green" points="206,-291.5 367,-291.5 "/>
<text text-anchor="middle" x="286.5" y="-276.3" font-family="Times New Roman,serif" font-size="14.00">NONE</text>
</g>
<!-- PCA_Correlation_Combined -->
<g id="node14" class="node"><title>PCA_Correlation_Combined</title>
<polygon fill="none" stroke="blue" points="622,-253 435,-253 435,-217 622,-217 622,-253"/>
<text text-anchor="middle" x="528.5" y="-231.3" font-family="Times New Roman,serif" font-size="14.00">Correlation Targets Combined</text>
</g>
<!-- Correlation_Combined&#45;&gt;PCA_Correlation_Combined -->
<g id="edge14" class="edge"><title>Correlation_Combined&#45;&gt;PCA_Correlation_Combined</title>
<path fill="none" stroke="black" d="M367.059,-269.623C376.825,-266.962 386.517,-264.403 396,-262 405.404,-259.617 415.226,-257.295 425.083,-255.078"/>
<polygon fill="black" stroke="black" points="425.929,-258.475 434.936,-252.896 424.416,-251.641 425.929,-258.475"/>
</g>
<!-- Numeric_Correlation_Combined -->
<g id="node20" class="node"><title>Numeric_Correlation_Combined</title>
<polygon fill="none" stroke="blue" points="1853,-424 1666,-424 1666,-388 1853,-388 1853,-424"/>
<text text-anchor="middle" x="1759.5" y="-402.3" font-family="Times New Roman,serif" font-size="14.00">Correlation Targets Combined</text>
</g>
<!-- Correlation_Combined&#45;&gt;Numeric_Correlation_Combined -->
<g id="edge19" class="edge"><title>Correlation_Combined&#45;&gt;Numeric_Correlation_Combined</title>
<path fill="none" stroke="black" d="M346.632,-383.525C363.177,-388.229 379.838,-392.507 396,-396 453.448,-408.416 468.725,-410 527.5,-410 527.5,-410 527.5,-410 1405.5,-410 1489.76,-410 1585.34,-408.846 1655.77,-407.778"/>
<polygon fill="black" stroke="black" points="1656.02,-411.275 1665.97,-407.621 1655.92,-404.275 1656.02,-411.275"/>
</g>
<!-- Static_FactorVol -->
<g id="node8" class="node"><title>Static_FactorVol</title>
<polygon fill="none" stroke="green" points="42.5,-0.5 42.5,-115.5 324.5,-115.5 324.5,-0.5 42.5,-0.5"/>
<text text-anchor="middle" x="142" y="-54.3" font-family="Times New Roman,serif" font-size="14.00">Assets.EQ.Factors.Sigma.Const</text>
<polyline fill="none" stroke="green" points="241.5,-0.5 241.5,-115.5 "/>
<text text-anchor="middle" x="283" y="-100.3" font-family="Times New Roman,serif" font-size="14.00">Best_Views</text>
<polyline fill="none" stroke="green" points="241.5,-92.5 324.5,-92.5 "/>
<text text-anchor="middle" x="283" y="-77.3" font-family="Times New Roman,serif" font-size="14.00">NONE</text>
<polyline fill="none" stroke="green" points="241.5,-69.5 324.5,-69.5 "/>
<text text-anchor="middle" x="283" y="-54.3" font-family="Times New Roman,serif" font-size="14.00">Real World</text>
<polyline fill="none" stroke="green" points="241.5,-46.5 324.5,-46.5 "/>
<text text-anchor="middle" x="283" y="-31.3" font-family="Times New Roman,serif" font-size="14.00">E_ALL</text>
<polyline fill="none" stroke="green" points="241.5,-23.5 324.5,-23.5 "/>
<text text-anchor="middle" x="283" y="-8.3" font-family="Times New Roman,serif" font-size="14.00">NONE</text>
</g>
<!-- PCA_FactorVols -->
<g id="node16" class="node"><title>PCA_FactorVols</title>
<polygon fill="none" stroke="blue" points="582,-145 475,-145 475,-109 582,-109 582,-145"/>
<text text-anchor="middle" x="528.5" y="-123.3" font-family="Times New Roman,serif" font-size="14.00">Factor Volatility</text>
</g>
<!-- Static_FactorVol&#45;&gt;PCA_FactorVols -->
<g id="edge16" class="edge"><title>Static_FactorVol&#45;&gt;PCA_FactorVols</title>
<path fill="none" stroke="black" d="M324.506,-86.1645C373.242,-95.9686 425.493,-106.48 464.776,-114.382"/>
<polygon fill="black" stroke="black" points="464.236,-117.843 474.73,-116.384 465.616,-110.981 464.236,-117.843"/>
</g>
<!-- Numeric_FactorVols -->
<g id="node22" class="node"><title>Numeric_FactorVols</title>
<polygon fill="none" stroke="blue" points="1813,-316 1706,-316 1706,-280 1813,-280 1813,-316"/>
<text text-anchor="middle" x="1759.5" y="-294.3" font-family="Times New Roman,serif" font-size="14.00">Factor Volatility</text>
</g>
<!-- Static_FactorVol&#45;&gt;Numeric_FactorVols -->
<g id="edge21" class="edge"><title>Static_FactorVol&#45;&gt;Numeric_FactorVols</title>
<path fill="none" stroke="black" d="M324.642,-65.1191C386.771,-67.7031 460.765,-70 527.5,-70 527.5,-70 527.5,-70 1405.5,-70 1552.87,-70 1687.46,-211.956 1737.68,-271.845"/>
<polygon fill="black" stroke="black" points="1735.13,-274.252 1744.2,-279.727 1740.52,-269.791 1735.13,-274.252"/>
</g>
<!-- PCA_Model_Output -->
<g id="node9" class="node"><title>PCA_Model_Output</title>
<polygon fill="none" stroke="green" points="1235.5,-262.5 1235.5,-377.5 1573.5,-377.5 1573.5,-262.5 1235.5,-262.5"/>
<text text-anchor="middle" x="1289" y="-316.3" font-family="Times New Roman,serif" font-size="14.00">Assets.EQ.PEA</text>
<polyline fill="none" stroke="green" points="1342.5,-262.5 1342.5,-377.5 "/>
<text text-anchor="middle" x="1458" y="-362.3" font-family="Times New Roman,serif" font-size="14.00">Best_Views_ConstantVol_PCA_Only</text>
<polyline fill="none" stroke="green" points="1342.5,-354.5 1573.5,-354.5 "/>
<text text-anchor="middle" x="1458" y="-339.3" font-family="Times New Roman,serif" font-size="14.00">NONE</text>
<polyline fill="none" stroke="green" points="1342.5,-331.5 1573.5,-331.5 "/>
<text text-anchor="middle" x="1458" y="-316.3" font-family="Times New Roman,serif" font-size="14.00">Real World</text>
<polyline fill="none" stroke="green" points="1342.5,-308.5 1573.5,-308.5 "/>
<text text-anchor="middle" x="1458" y="-293.3" font-family="Times New Roman,serif" font-size="14.00">E_ALL</text>
<polyline fill="none" stroke="green" points="1342.5,-285.5 1573.5,-285.5 "/>
<text text-anchor="middle" x="1458" y="-270.3" font-family="Times New Roman,serif" font-size="14.00">NONE</text>
</g>
<!-- Numeric_Calibrated_Factors -->
<g id="node23" class="node"><title>Numeric_Calibrated_Factors</title>
<polygon fill="none" stroke="blue" points="1834,-370 1685,-370 1685,-334 1834,-334 1834,-370"/>
<text text-anchor="middle" x="1759.5" y="-348.3" font-family="Times New Roman,serif" font-size="14.00">Calibrated Factor Betas</text>
</g>
<!-- PCA_Model_Output&#45;&gt;Numeric_Calibrated_Factors -->
<g id="edge22" class="edge"><title>PCA_Model_Output&#45;&gt;Numeric_Calibrated_Factors</title>
<path fill="none" stroke="black" d="M1573.73,-335.25C1608.83,-338.432 1644.36,-341.653 1674.77,-344.41"/>
<polygon fill="black" stroke="black" points="1674.6,-347.909 1684.88,-345.326 1675.23,-340.937 1674.6,-347.909"/>
</g>
<!-- Factor_Calibration -->
<g id="node10" class="node"><title>Factor_Calibration</title>
<polygon fill="none" stroke="green" points="3628.5,-416.5 3628.5,-531.5 3896.5,-531.5 3896.5,-416.5 3628.5,-416.5"/>
<text text-anchor="middle" x="3682" y="-470.3" font-family="Times New Roman,serif" font-size="14.00">Assets.EQ.PEA</text>
<polyline fill="none" stroke="green" points="3735.5,-416.5 3735.5,-531.5 "/>
<text text-anchor="middle" x="3816" y="-516.3" font-family="Times New Roman,serif" font-size="14.00">Best_Views_ConstantVol</text>
<polyline fill="none" stroke="green" points="3735.5,-508.5 3896.5,-508.5 "/>
<text text-anchor="middle" x="3816" y="-493.3" font-family="Times New Roman,serif" font-size="14.00">NONE</text>
<polyline fill="none" stroke="green" points="3735.5,-485.5 3896.5,-485.5 "/>
<text text-anchor="middle" x="3816" y="-470.3" font-family="Times New Roman,serif" font-size="14.00">Real World</text>
<polyline fill="none" stroke="green" points="3735.5,-462.5 3896.5,-462.5 "/>
<text text-anchor="middle" x="3816" y="-447.3" font-family="Times New Roman,serif" font-size="14.00">#PerAsset#</text>
<polyline fill="none" stroke="green" points="3735.5,-439.5 3896.5,-439.5 "/>
<text text-anchor="middle" x="3816" y="-424.3" font-family="Times New Roman,serif" font-size="14.00">NONE</text>
</g>
<!-- Volatility_Calibration -->
<g id="node11" class="node"><title>Volatility_Calibration</title>
<polygon fill="none" stroke="green" points="3591,-282.5 3591,-397.5 3934,-397.5 3934,-282.5 3591,-282.5"/>
<text text-anchor="middle" x="3682" y="-336.3" font-family="Times New Roman,serif" font-size="14.00">Assets.EQ.PEA.Sigma.Const</text>
<polyline fill="none" stroke="green" points="3773,-282.5 3773,-397.5 "/>
<text text-anchor="middle" x="3853.5" y="-382.3" font-family="Times New Roman,serif" font-size="14.00">Best_Views_ConstantVol</text>
<polyline fill="none" stroke="green" points="3773,-374.5 3934,-374.5 "/>
<text text-anchor="middle" x="3853.5" y="-359.3" font-family="Times New Roman,serif" font-size="14.00">NONE</text>
<polyline fill="none" stroke="green" points="3773,-351.5 3934,-351.5 "/>
<text text-anchor="middle" x="3853.5" y="-336.3" font-family="Times New Roman,serif" font-size="14.00">Real World</text>
<polyline fill="none" stroke="green" points="3773,-328.5 3934,-328.5 "/>
<text text-anchor="middle" x="3853.5" y="-313.3" font-family="Times New Roman,serif" font-size="14.00">#PerAsset#</text>
<polyline fill="none" stroke="green" points="3773,-305.5 3934,-305.5 "/>
<text text-anchor="middle" x="3853.5" y="-290.3" font-family="Times New Roman,serif" font-size="14.00">NONE</text>
</g>
<!-- Combined_Model_Output -->
<g id="node12" class="node"><title>Combined_Model_Output</title>
<polygon fill="none" stroke="green" points="2500,-348.5 2500,-463.5 2768,-463.5 2768,-348.5 2500,-348.5"/>
<text text-anchor="middle" x="2553.5" y="-402.3" font-family="Times New Roman,serif" font-size="14.00">Assets.EQ.PEA</text>
<polyline fill="none" stroke="green" points="2607,-348.5 2607,-463.5 "/>
<text text-anchor="middle" x="2687.5" y="-448.3" font-family="Times New Roman,serif" font-size="14.00">Best_Views_ConstantVol</text>
<polyline fill="none" stroke="green" points="2607,-440.5 2768,-440.5 "/>
<text text-anchor="middle" x="2687.5" y="-425.3" font-family="Times New Roman,serif" font-size="14.00">NONE</text>
<polyline fill="none" stroke="green" points="2607,-417.5 2768,-417.5 "/>
<text text-anchor="middle" x="2687.5" y="-402.3" font-family="Times New Roman,serif" font-size="14.00">Real World</text>
<polyline fill="none" stroke="green" points="2607,-394.5 2768,-394.5 "/>
<text text-anchor="middle" x="2687.5" y="-379.3" font-family="Times New Roman,serif" font-size="14.00">E_ALL</text>
<polyline fill="none" stroke="green" points="2607,-371.5 2768,-371.5 "/>
<text text-anchor="middle" x="2687.5" y="-356.3" font-family="Times New Roman,serif" font-size="14.00">NONE</text>
</g>
<!-- ConstVol_Combined -->
<g id="node25" class="node"><title>ConstVol_Combined</title>
<polygon fill="none" stroke="blue" points="2942,-424 2805,-424 2805,-388 2942,-388 2942,-424"/>
<text text-anchor="middle" x="2873.5" y="-402.3" font-family="Times New Roman,serif" font-size="14.00">ConstVol_Combined</text>
</g>
<!-- Combined_Model_Output&#45;&gt;ConstVol_Combined -->
<g id="edge27" class="edge"><title>Combined_Model_Output&#45;&gt;ConstVol_Combined</title>
<path fill="none" stroke="black" d="M2768.33,-406C2777.27,-406 2786.11,-406 2794.62,-406"/>
<polygon fill="black" stroke="black" points="2794.84,-409.5 2804.84,-406 2794.84,-402.5 2794.84,-409.5"/>
</g>
<!-- PCA_UncVol_Combined&#45;&gt;PCA_Tool -->
<g id="edge4" class="edge"><title>PCA_UncVol_Combined&#45;&gt;PCA_Tool</title>
<path fill="none" stroke="black" d="M653.352,-278.018C662.085,-277.244 670.947,-276.458 679.818,-275.671"/>
<polygon fill="black" stroke="black" points="680.179,-279.153 689.831,-274.783 679.561,-272.18 680.179,-279.153"/>
</g>
<!-- PCA_Correlation_Combined&#45;&gt;PCA_Tool -->
<g id="edge5" class="edge"><title>PCA_Correlation_Combined&#45;&gt;PCA_Tool</title>
<path fill="none" stroke="black" d="M622.1,-243.211C640.436,-244.837 660.144,-246.584 679.893,-248.335"/>
<polygon fill="black" stroke="black" points="679.629,-251.826 689.899,-249.223 680.248,-244.853 679.629,-251.826"/>
</g>
<!-- PCA_Tool_Settings&#45;&gt;PCA_Tool -->
<g id="edge3" class="edge"><title>PCA_Tool_Settings&#45;&gt;PCA_Tool</title>
<path fill="none" stroke="black" d="M574.568,-190.009C598.05,-194.916 627.18,-201.336 653,-208 661.744,-210.257 670.702,-212.653 679.725,-215.132"/>
<polygon fill="black" stroke="black" points="678.964,-218.553 689.536,-217.853 680.835,-211.808 678.964,-218.553"/>
</g>
<!-- PCA_FactorVols&#45;&gt;PCA_Tool -->
<g id="edge6" class="edge"><title>PCA_FactorVols&#45;&gt;PCA_Tool</title>
<path fill="none" stroke="black" d="M582.283,-134.665C604.591,-138.888 630.55,-145.121 653,-154 683.091,-165.9 713.99,-182.466 741.549,-199.054"/>
<polygon fill="black" stroke="black" points="740.014,-202.217 750.374,-204.434 743.658,-196.24 740.014,-202.217"/>
</g>
<!-- PCA_Calibrated_Factors -->
<g id="node17" class="node"><title>PCA_Calibrated_Factors</title>
<polygon fill="none" stroke="blue" points="603,-361 454,-361 454,-325 603,-325 603,-361"/>
<text text-anchor="middle" x="528.5" y="-339.3" font-family="Times New Roman,serif" font-size="14.00">Calibrated Factor Betas</text>
</g>
<!-- PCA_Calibrated_Factors&#45;&gt;PCA_Tool -->
<g id="edge7" class="edge"><title>PCA_Calibrated_Factors&#45;&gt;PCA_Tool</title>
<path fill="none" stroke="black" stroke-dasharray="1,5" d="M603.182,-327.836C619.633,-324.188 636.956,-320.141 653,-316 661.744,-313.743 670.702,-311.347 679.725,-308.868"/>
<polygon fill="black" stroke="black" points="680.835,-312.192 689.536,-306.147 678.964,-305.447 680.835,-312.192"/>
</g>
<!-- Output_Combined_PCA&#45;&gt;PCA_Model_Output -->
<g id="edge17" class="edge"><title>Output_Combined_PCA&#45;&gt;PCA_Model_Output</title>
<path fill="none" stroke="black" d="M1174.37,-302.834C1190.11,-304.013 1207.26,-305.298 1224.87,-306.617"/>
<polygon fill="black" stroke="black" points="1225.05,-310.14 1235.28,-307.397 1225.57,-303.16 1225.05,-310.14"/>
</g>
<!-- Numeric_UncVol_Combined&#45;&gt;NumFit_Tool -->
<g id="edge9" class="edge"><title>Numeric_UncVol_Combined&#45;&gt;NumFit_Tool</title>
<path fill="none" stroke="black" d="M1868.84,-441.944C1882.44,-439.677 1896.61,-437.315 1910.9,-434.933"/>
<polygon fill="black" stroke="black" points="1911.52,-438.378 1920.81,-433.282 1910.37,-431.473 1911.52,-438.378"/>
</g>
<!-- Numeric_Correlation_Combined&#45;&gt;NumFit_Tool -->
<g id="edge10" class="edge"><title>Numeric_Correlation_Combined&#45;&gt;NumFit_Tool</title>
<path fill="none" stroke="black" d="M1853.35,-406C1871.5,-406 1891.08,-406 1910.9,-406"/>
<polygon fill="black" stroke="black" points="1910.96,-409.5 1920.96,-406 1910.96,-402.5 1910.96,-409.5"/>
</g>
<!-- Numeric_Tool_Settings&#45;&gt;NumFit_Tool -->
<g id="edge8" class="edge"><title>Numeric_Tool_Settings&#45;&gt;NumFit_Tool</title>
<path fill="none" stroke="black" d="M1805.56,-506.047C1829.17,-501.405 1858.42,-494.902 1884,-487 1902.88,-481.168 1922.47,-474.31 1941.69,-467.094"/>
<polygon fill="black" stroke="black" points="1942.98,-470.348 1951.09,-463.526 1940.49,-463.804 1942.98,-470.348"/>
</g>
<!-- Numeric_FactorVols&#45;&gt;NumFit_Tool -->
<g id="edge11" class="edge"><title>Numeric_FactorVols&#45;&gt;NumFit_Tool</title>
<path fill="none" stroke="black" d="M1813.29,-307.5C1835.36,-311.997 1861.14,-317.94 1884,-325 1902.88,-330.832 1922.47,-337.69 1941.69,-344.906"/>
<polygon fill="black" stroke="black" points="1940.49,-348.196 1951.09,-348.474 1942.98,-341.652 1940.49,-348.196"/>
</g>
<!-- Numeric_Calibrated_Factors&#45;&gt;NumFit_Tool -->
<g id="edge12" class="edge"><title>Numeric_Calibrated_Factors&#45;&gt;NumFit_Tool</title>
<path fill="none" stroke="black" stroke-dasharray="1,5" d="M1834.02,-364.253C1857.13,-368.106 1883.71,-372.536 1910.73,-377.039"/>
<polygon fill="black" stroke="black" points="1910.26,-380.509 1920.7,-378.7 1911.41,-373.604 1910.26,-380.509"/>
</g>
<!-- Output_Combined_Numeric&#45;&gt;Combined_Model_Output -->
<g id="edge23" class="edge"><title>Output_Combined_Numeric&#45;&gt;Combined_Model_Output</title>
<path fill="none" stroke="black" d="M2463.01,-406C2471.68,-406 2480.64,-406 2489.7,-406"/>
<polygon fill="black" stroke="black" points="2489.96,-409.5 2499.96,-406 2489.96,-402.5 2489.96,-409.5"/>
</g>
<!-- ConstVol_Combined&#45;&gt;ConstVol_Asset_Sorter -->
<g id="edge24" class="edge"><title>ConstVol_Combined&#45;&gt;ConstVol_Asset_Sorter</title>
<path fill="none" stroke="black" d="M2942.14,-406C2950.61,-406 2959.55,-406 2968.76,-406"/>
<polygon fill="black" stroke="black" points="2968.84,-409.5 2978.84,-406 2968.84,-402.5 2968.84,-409.5"/>
</g>
<!-- Output_FactorLoadings&#45;&gt;Factor_Calibration -->
<g id="edge28" class="edge"><title>Output_FactorLoadings&#45;&gt;Factor_Calibration</title>
<path fill="none" stroke="black" d="M3489.4,-445.811C3527.17,-449.724 3574.18,-454.594 3618.44,-459.179"/>
<polygon fill="black" stroke="black" points="3618.12,-462.665 3628.43,-460.214 3618.84,-455.702 3618.12,-462.665"/>
<text text-anchor="middle" x="3540" y="-457.8" font-family="Times New Roman,serif" font-size="14.00">~200 assets</text>
</g>
<!-- Output_ConstantVol&#45;&gt;Volatility_Calibration -->
<g id="edge29" class="edge"><title>Output_ConstantVol&#45;&gt;Volatility_Calibration</title>
<path fill="none" stroke="black" d="M3480.18,-369.144C3509.16,-366.142 3544.72,-362.458 3580.69,-358.732"/>
<polygon fill="black" stroke="black" points="3581.25,-362.192 3590.84,-357.68 3580.53,-355.229 3581.25,-362.192"/>
<text text-anchor="middle" x="3540" y="-370.8" font-family="Times New Roman,serif" font-size="14.00">~200 assets</text>
</g>
</g>
</svg>
