<?xml version="1.0" encoding="UTF-8" standalone="no"?>
<!DOCTYPE svg PUBLIC "-//W3C//DTD SVG 1.1//EN"
 "http://www.w3.org/Graphics/SVG/1.1/DTD/svg11.dtd">
<!-- Generated by graphviz version 2.38.0 (20140413.2041)
 -->
<!-- Title: SimpleMTT Pages: 1 -->
<svg width="1889pt" height="550pt"
 viewBox="0.00 0.00 1889.00 549.71" xmlns="http://www.w3.org/2000/svg" xmlns:xlink="http://www.w3.org/1999/xlink">
<g id="graph0" class="graph" transform="scale(1 1) rotate(0) translate(4 545.708)">
<title>SimpleMTT</title>
<polygon fill="white" stroke="none" points="-4,4 -4,-545.708 1885,-545.708 1885,4 -4,4"/>
<g id="clust6" class="cluster"><title>cluster_anchored_Out</title>
<polygon fill="none" stroke="black" points="1254,-161.708 1254,-236.708 1415,-236.708 1415,-161.708 1254,-161.708"/>
<text text-anchor="middle" x="1334.5" y="-221.508" font-family="Times New Roman,serif" font-size="14.00">Output Anchored Models</text>
</g>
<g id="clust2" class="cluster"><title>cluster_models_out</title>
<polygon fill="none" stroke="black" points="1514,-244.708 1514,-533.708 1873,-533.708 1873,-244.708 1514,-244.708"/>
<text text-anchor="middle" x="1693.5" y="-518.508" font-family="Times New Roman,serif" font-size="14.00">Output Models (per economy)</text>
</g>
<g id="clust4" class="cluster"><title>cluster_anchored_in</title>
<polygon fill="none" stroke="black" points="8,-53.7077 8,-344.708 206,-344.708 206,-53.7077 8,-53.7077"/>
<text text-anchor="middle" x="107" y="-329.508" font-family="Times New Roman,serif" font-size="14.00">Input Anchored Models</text>
</g>
<g id="clust3" class="cluster"><title>cluster_models_summary_out</title>
<polygon fill="none" stroke="black" points="1551.5,-81.7077 1551.5,-236.708 1835.5,-236.708 1835.5,-81.7077 1551.5,-81.7077"/>
<text text-anchor="middle" x="1693.5" y="-221.508" font-family="Times New Roman,serif" font-size="14.00">Output Models (combined)</text>
</g>
<g id="clust1" class="cluster"><title>cluster_breakup_models</title>
<polygon fill="none" stroke="black" points="227,-244.708 227,-399.708 1219,-399.708 1219,-244.708 227,-244.708"/>
<text text-anchor="middle" x="723" y="-384.508" font-family="Times New Roman,serif" font-size="14.00">Inner workings of the ConstVol_Equity_Tool</text>
</g>
<g id="clust5" class="cluster"><title>cluster_unanchored_out</title>
<polygon fill="none" stroke="black" points="1240,-284.708 1240,-413.708 1428,-413.708 1428,-284.708 1240,-284.708"/>
<text text-anchor="middle" x="1334" y="-398.508" font-family="Times New Roman,serif" font-size="14.00">un&#45;anchored models, per asset</text>
</g>
<!-- PCA_Tool -->
<g id="node1" class="node"><title>PCA_Tool</title>
<polygon fill="none" stroke="blue" points="235,-253.208 235,-368.208 507,-368.208 507,-253.208 235,-253.208"/>
<text text-anchor="middle" x="330.5" y="-307.008" font-family="Times New Roman,serif" font-size="14.00">Constant Equity Volatility Tool</text>
<polyline fill="none" stroke="blue" points="426,-253.208 426,-368.208 "/>
<text text-anchor="middle" x="466.5" y="-353.008" font-family="Times New Roman,serif" font-size="14.00">PCA bit</text>
<polyline fill="none" stroke="blue" points="426,-345.208 507,-345.208 "/>
<text text-anchor="middle" x="466.5" y="-330.008" font-family="Times New Roman,serif" font-size="14.00">NONE</text>
<polyline fill="none" stroke="blue" points="426,-322.208 507,-322.208 "/>
<text text-anchor="middle" x="466.5" y="-307.008" font-family="Times New Roman,serif" font-size="14.00">Real World</text>
<polyline fill="none" stroke="blue" points="426,-299.208 507,-299.208 "/>
<text text-anchor="middle" x="466.5" y="-284.008" font-family="Times New Roman,serif" font-size="14.00">E_ALL</text>
<polyline fill="none" stroke="blue" points="426,-276.208 507,-276.208 "/>
<text text-anchor="middle" x="466.5" y="-261.008" font-family="Times New Roman,serif" font-size="14.00">NONE</text>
</g>
<!-- PCA_Model_Output -->
<g id="node3" class="node"><title>PCA_Model_Output</title>
<polygon fill="none" stroke="green" points="544,-253.208 544,-368.208 882,-368.208 882,-253.208 544,-253.208"/>
<text text-anchor="middle" x="597.5" y="-307.008" font-family="Times New Roman,serif" font-size="14.00">Assets.EQ.PEA</text>
<polyline fill="none" stroke="green" points="651,-253.208 651,-368.208 "/>
<text text-anchor="middle" x="766.5" y="-353.008" font-family="Times New Roman,serif" font-size="14.00">Best_Views_ConstantVol_PCA_Only</text>
<polyline fill="none" stroke="green" points="651,-345.208 882,-345.208 "/>
<text text-anchor="middle" x="766.5" y="-330.008" font-family="Times New Roman,serif" font-size="14.00">NONE</text>
<polyline fill="none" stroke="green" points="651,-322.208 882,-322.208 "/>
<text text-anchor="middle" x="766.5" y="-307.008" font-family="Times New Roman,serif" font-size="14.00">Real World</text>
<polyline fill="none" stroke="green" points="651,-299.208 882,-299.208 "/>
<text text-anchor="middle" x="766.5" y="-284.008" font-family="Times New Roman,serif" font-size="14.00">E_ALL</text>
<polyline fill="none" stroke="green" points="651,-276.208 882,-276.208 "/>
<text text-anchor="middle" x="766.5" y="-261.008" font-family="Times New Roman,serif" font-size="14.00">NONE</text>
</g>
<!-- PCA_Tool&#45;&gt;PCA_Model_Output -->
<g id="edge1" class="edge"><title>PCA_Tool&#45;&gt;PCA_Model_Output</title>
<path fill="none" stroke="black" d="M507.354,-310.708C516.1,-310.708 524.973,-310.708 533.876,-310.708"/>
<polygon fill="black" stroke="black" points="533.936,-314.208 543.936,-310.708 533.936,-307.208 533.936,-314.208"/>
</g>
<!-- NumFit_Tool -->
<g id="node2" class="node"><title>NumFit_Tool</title>
<polygon fill="none" stroke="blue" points="919,-253.208 919,-368.208 1211,-368.208 1211,-253.208 919,-253.208"/>
<text text-anchor="middle" x="1014.5" y="-307.008" font-family="Times New Roman,serif" font-size="14.00">Constant Equity Volatility Tool</text>
<polyline fill="none" stroke="blue" points="1110,-253.208 1110,-368.208 "/>
<text text-anchor="middle" x="1160.5" y="-353.008" font-family="Times New Roman,serif" font-size="14.00">Numeric Fit bit</text>
<polyline fill="none" stroke="blue" points="1110,-345.208 1211,-345.208 "/>
<text text-anchor="middle" x="1160.5" y="-330.008" font-family="Times New Roman,serif" font-size="14.00">NONE</text>
<polyline fill="none" stroke="blue" points="1110,-322.208 1211,-322.208 "/>
<text text-anchor="middle" x="1160.5" y="-307.008" font-family="Times New Roman,serif" font-size="14.00">Real World</text>
<polyline fill="none" stroke="blue" points="1110,-299.208 1211,-299.208 "/>
<text text-anchor="middle" x="1160.5" y="-284.008" font-family="Times New Roman,serif" font-size="14.00">E_ALL</text>
<polyline fill="none" stroke="blue" points="1110,-276.208 1211,-276.208 "/>
<text text-anchor="middle" x="1160.5" y="-261.008" font-family="Times New Roman,serif" font-size="14.00">NONE</text>
</g>
<!-- Output_FactorLoadings -->
<g id="node12" class="node"><title>Output_FactorLoadings</title>
<polygon fill="none" stroke="orange" points="1410,-382.708 1258,-382.708 1258,-346.708 1410,-346.708 1410,-382.708"/>
<text text-anchor="middle" x="1334" y="-361.008" font-family="Times New Roman,serif" font-size="14.00">Output_FactorLoadings</text>
</g>
<!-- NumFit_Tool&#45;&gt;Output_FactorLoadings -->
<g id="edge12" class="edge"><title>NumFit_Tool&#45;&gt;Output_FactorLoadings</title>
<path fill="none" stroke="black" d="M1211.22,-340.078C1223.61,-342.584 1235.87,-345.063 1247.56,-347.427"/>
<polygon fill="black" stroke="black" points="1247.18,-350.921 1257.67,-349.473 1248.57,-344.06 1247.18,-350.921"/>
</g>
<!-- Output_ConstantVol -->
<g id="node13" class="node"><title>Output_ConstantVol</title>
<polygon fill="none" stroke="orange" points="1401,-328.708 1267,-328.708 1267,-292.708 1401,-292.708 1401,-328.708"/>
<text text-anchor="middle" x="1334" y="-307.008" font-family="Times New Roman,serif" font-size="14.00">Output_ConstantVol</text>
</g>
<!-- NumFit_Tool&#45;&gt;Output_ConstantVol -->
<g id="edge13" class="edge"><title>NumFit_Tool&#45;&gt;Output_ConstantVol</title>
<path fill="none" stroke="black" d="M1211.22,-310.708C1226.87,-310.708 1242.3,-310.708 1256.65,-310.708"/>
<polygon fill="black" stroke="black" points="1256.89,-314.208 1266.89,-310.708 1256.89,-307.208 1256.89,-314.208"/>
</g>
<!-- Output_Combined -->
<g id="node14" class="node"><title>Output_Combined</title>
<polygon fill="none" stroke="blue" points="1395,-205.708 1273,-205.708 1273,-169.708 1395,-169.708 1395,-205.708"/>
<text text-anchor="middle" x="1334" y="-184.008" font-family="Times New Roman,serif" font-size="14.00">Output_Combined</text>
</g>
<!-- NumFit_Tool&#45;&gt;Output_Combined -->
<g id="edge14" class="edge"><title>NumFit_Tool&#45;&gt;Output_Combined</title>
<path fill="none" stroke="black" d="M1190.9,-253.169C1224.14,-237.856 1258.1,-222.213 1284.48,-210.061"/>
<polygon fill="black" stroke="black" points="1286.22,-213.112 1293.84,-205.749 1283.29,-206.754 1286.22,-213.112"/>
</g>
<!-- PCA_Model_Output&#45;&gt;NumFit_Tool -->
<g id="edge2" class="edge"><title>PCA_Model_Output&#45;&gt;NumFit_Tool</title>
<path fill="none" stroke="black" d="M882.08,-310.708C890.899,-310.708 899.741,-310.708 908.518,-310.708"/>
<polygon fill="black" stroke="black" points="908.784,-314.208 918.784,-310.708 908.784,-307.208 908.784,-314.208"/>
</g>
<!-- Input_Calibrated_Factors -->
<g id="node11" class="node"><title>Input_Calibrated_Factors</title>
<polygon fill="none" stroke="blue" points="187.5,-97.7077 26.5,-97.7077 26.5,-61.7077 187.5,-61.7077 187.5,-97.7077"/>
<text text-anchor="middle" x="107" y="-76.0077" font-family="Times New Roman,serif" font-size="14.00">Input_Calibrated_Factors</text>
</g>
<!-- PCA_Model_Output&#45;&gt;Input_Calibrated_Factors -->
<g id="edge18" class="edge"><title>PCA_Model_Output&#45;&gt;Input_Calibrated_Factors</title>
<path fill="none" stroke="black" d="M581.174,-253.156C479.909,-209.787 335.545,-150.507 206,-106.708 199.966,-104.668 193.685,-102.666 187.347,-100.733"/>
<polygon fill="black" stroke="black" points="187.951,-97.2604 177.368,-97.7549 185.95,-103.968 187.951,-97.2604"/>
</g>
<!-- Factor_Calibration -->
<g id="node4" class="node"><title>Factor_Calibration</title>
<polygon fill="none" stroke="green" points="1559.5,-387.208 1559.5,-502.208 1827.5,-502.208 1827.5,-387.208 1559.5,-387.208"/>
<text text-anchor="middle" x="1613" y="-441.008" font-family="Times New Roman,serif" font-size="14.00">Assets.EQ.PEA</text>
<polyline fill="none" stroke="green" points="1666.5,-387.208 1666.5,-502.208 "/>
<text text-anchor="middle" x="1747" y="-487.008" font-family="Times New Roman,serif" font-size="14.00">Best_Views_ConstantVol</text>
<polyline fill="none" stroke="green" points="1666.5,-479.208 1827.5,-479.208 "/>
<text text-anchor="middle" x="1747" y="-464.008" font-family="Times New Roman,serif" font-size="14.00">NONE</text>
<polyline fill="none" stroke="green" points="1666.5,-456.208 1827.5,-456.208 "/>
<text text-anchor="middle" x="1747" y="-441.008" font-family="Times New Roman,serif" font-size="14.00">Real World</text>
<polyline fill="none" stroke="green" points="1666.5,-433.208 1827.5,-433.208 "/>
<text text-anchor="middle" x="1747" y="-418.008" font-family="Times New Roman,serif" font-size="14.00">#PerAsset#</text>
<polyline fill="none" stroke="green" points="1666.5,-410.208 1827.5,-410.208 "/>
<text text-anchor="middle" x="1747" y="-395.008" font-family="Times New Roman,serif" font-size="14.00">NONE</text>
</g>
<!-- Volatility_Calibration -->
<g id="node5" class="node"><title>Volatility_Calibration</title>
<polygon fill="none" stroke="green" points="1522,-253.208 1522,-368.208 1865,-368.208 1865,-253.208 1522,-253.208"/>
<text text-anchor="middle" x="1613" y="-307.008" font-family="Times New Roman,serif" font-size="14.00">Assets.EQ.PEA.Sigma.Const</text>
<polyline fill="none" stroke="green" points="1704,-253.208 1704,-368.208 "/>
<text text-anchor="middle" x="1784.5" y="-353.008" font-family="Times New Roman,serif" font-size="14.00">Best_Views_ConstantVol</text>
<polyline fill="none" stroke="green" points="1704,-345.208 1865,-345.208 "/>
<text text-anchor="middle" x="1784.5" y="-330.008" font-family="Times New Roman,serif" font-size="14.00">NONE</text>
<polyline fill="none" stroke="green" points="1704,-322.208 1865,-322.208 "/>
<text text-anchor="middle" x="1784.5" y="-307.008" font-family="Times New Roman,serif" font-size="14.00">Real World</text>
<polyline fill="none" stroke="green" points="1704,-299.208 1865,-299.208 "/>
<text text-anchor="middle" x="1784.5" y="-284.008" font-family="Times New Roman,serif" font-size="14.00">#PerAsset#</text>
<polyline fill="none" stroke="green" points="1704,-276.208 1865,-276.208 "/>
<text text-anchor="middle" x="1784.5" y="-261.008" font-family="Times New Roman,serif" font-size="14.00">NONE</text>
</g>
<!-- Combined_Model_Output -->
<g id="node6" class="node"><title>Combined_Model_Output</title>
<polygon fill="none" stroke="green" points="1559.5,-90.2077 1559.5,-205.208 1827.5,-205.208 1827.5,-90.2077 1559.5,-90.2077"/>
<text text-anchor="middle" x="1613" y="-144.008" font-family="Times New Roman,serif" font-size="14.00">Assets.EQ.PEA</text>
<polyline fill="none" stroke="green" points="1666.5,-90.2077 1666.5,-205.208 "/>
<text text-anchor="middle" x="1747" y="-190.008" font-family="Times New Roman,serif" font-size="14.00">Best_Views_ConstantVol</text>
<polyline fill="none" stroke="green" points="1666.5,-182.208 1827.5,-182.208 "/>
<text text-anchor="middle" x="1747" y="-167.008" font-family="Times New Roman,serif" font-size="14.00">NONE</text>
<polyline fill="none" stroke="green" points="1666.5,-159.208 1827.5,-159.208 "/>
<text text-anchor="middle" x="1747" y="-144.008" font-family="Times New Roman,serif" font-size="14.00">Real World</text>
<polyline fill="none" stroke="green" points="1666.5,-136.208 1827.5,-136.208 "/>
<text text-anchor="middle" x="1747" y="-121.008" font-family="Times New Roman,serif" font-size="14.00">E_ALL</text>
<polyline fill="none" stroke="green" points="1666.5,-113.208 1827.5,-113.208 "/>
<text text-anchor="middle" x="1747" y="-98.0077" font-family="Times New Roman,serif" font-size="14.00">NONE</text>
</g>
<!-- Input_UncVol_Combined -->
<g id="node7" class="node"><title>Input_UncVol_Combined</title>
<polygon fill="none" stroke="blue" points="188.5,-151.708 25.5,-151.708 25.5,-115.708 188.5,-115.708 188.5,-151.708"/>
<text text-anchor="middle" x="107" y="-130.008" font-family="Times New Roman,serif" font-size="14.00">Input_UncVol_Combined</text>
</g>
<!-- Input_UncVol_Combined&#45;&gt;PCA_Tool -->
<g id="edge4" class="edge"><title>Input_UncVol_Combined&#45;&gt;PCA_Tool</title>
<path fill="none" stroke="black" d="M188.938,-148.988C195.128,-152.192 200.929,-156.054 206,-160.708 215.429,-169.36 209.548,-176.657 216,-187.708 219.816,-194.244 221.525,-195.482 227,-200.708 243.505,-216.461 262.195,-232.156 280.49,-246.549"/>
<polygon fill="black" stroke="black" points="278.819,-249.684 288.859,-253.067 283.12,-244.161 278.819,-249.684"/>
</g>
<!-- Input_UncVol_Combined&#45;&gt;NumFit_Tool -->
<g id="edge8" class="edge"><title>Input_UncVol_Combined&#45;&gt;NumFit_Tool</title>
<path fill="none" stroke="black" d="M176.813,-115.706C193.155,-112.096 210.606,-108.78 227,-106.708 371.42,-88.4508 749.796,-36.7782 882,-97.7077 947.143,-127.73 997.629,-193.845 1028.73,-244.507"/>
<polygon fill="black" stroke="black" points="1025.77,-246.377 1033.93,-253.134 1031.76,-242.763 1025.77,-246.377"/>
</g>
<!-- Input_Correlation_Combined -->
<g id="node8" class="node"><title>Input_Correlation_Combined</title>
<polygon fill="none" stroke="blue" points="198,-313.708 16,-313.708 16,-277.708 198,-277.708 198,-313.708"/>
<text text-anchor="middle" x="107" y="-292.008" font-family="Times New Roman,serif" font-size="14.00">Input_Correlation_Combined</text>
</g>
<!-- Input_Correlation_Combined&#45;&gt;PCA_Tool -->
<g id="edge5" class="edge"><title>Input_Correlation_Combined&#45;&gt;PCA_Tool</title>
<path fill="none" stroke="black" d="M198.166,-300.87C206.769,-301.362 215.634,-301.87 224.59,-302.383"/>
<polygon fill="black" stroke="black" points="224.547,-305.886 234.731,-302.963 224.947,-298.897 224.547,-305.886"/>
</g>
<!-- Input_Correlation_Combined&#45;&gt;NumFit_Tool -->
<g id="edge9" class="edge"><title>Input_Correlation_Combined&#45;&gt;NumFit_Tool</title>
<path fill="none" stroke="black" d="M189.383,-277.542C195.193,-274.972 200.801,-272.043 206,-268.708 218.213,-260.871 213.847,-249.837 227,-243.708 490.869,-120.749 595.405,-192.631 882,-243.708 892.048,-245.498 902.268,-247.804 912.479,-250.479"/>
<polygon fill="black" stroke="black" points="911.691,-253.892 922.26,-253.151 913.536,-247.139 911.691,-253.892"/>
</g>
<!-- Input_Tool_Settings -->
<g id="node9" class="node"><title>Input_Tool_Settings</title>
<polygon fill="none" stroke="blue" points="173,-259.708 41,-259.708 41,-223.708 173,-223.708 173,-259.708"/>
<text text-anchor="middle" x="107" y="-238.008" font-family="Times New Roman,serif" font-size="14.00">Input_Tool_Settings</text>
</g>
<!-- Input_Tool_Settings&#45;&gt;PCA_Tool -->
<g id="edge3" class="edge"><title>Input_Tool_Settings&#45;&gt;PCA_Tool</title>
<path fill="none" stroke="black" d="M173.101,-258.853C189.094,-263.065 206.86,-267.743 224.988,-272.518"/>
<polygon fill="black" stroke="black" points="224.227,-275.936 234.789,-275.099 226.01,-269.167 224.227,-275.936"/>
</g>
<!-- Input_Tool_Settings&#45;&gt;NumFit_Tool -->
<g id="edge7" class="edge"><title>Input_Tool_Settings&#45;&gt;NumFit_Tool</title>
<path fill="none" stroke="black" d="M173.167,-231.998C184.971,-228.045 196.525,-222.496 206,-214.708 222.122,-201.456 209.247,-183.68 227,-172.708 255.551,-155.062 821.454,-154.405 882,-174.708 925.451,-189.278 966.95,-218.636 999.319,-246.358"/>
<polygon fill="black" stroke="black" points="997.085,-249.054 1006.92,-252.985 1001.68,-243.776 997.085,-249.054"/>
</g>
<!-- Input_FactorVols -->
<g id="node10" class="node"><title>Input_FactorVols</title>
<polygon fill="none" stroke="blue" points="165,-205.708 49,-205.708 49,-169.708 165,-169.708 165,-205.708"/>
<text text-anchor="middle" x="107" y="-184.008" font-family="Times New Roman,serif" font-size="14.00">Input_FactorVols</text>
</g>
<!-- Input_FactorVols&#45;&gt;PCA_Tool -->
<g id="edge6" class="edge"><title>Input_FactorVols&#45;&gt;PCA_Tool</title>
<path fill="none" stroke="black" d="M165.083,-200.737C178.724,-204.584 193.073,-209.254 206,-214.708 228.175,-224.062 251.029,-235.881 272.374,-248"/>
<polygon fill="black" stroke="black" points="270.691,-251.07 281.105,-253.02 274.181,-245.001 270.691,-251.07"/>
</g>
<!-- Input_FactorVols&#45;&gt;NumFit_Tool -->
<g id="edge10" class="edge"><title>Input_FactorVols&#45;&gt;NumFit_Tool</title>
<path fill="none" stroke="black" d="M165.294,-171.951C194.089,-164.094 223.62,-156.154 227,-155.708 515.604,-117.581 608.811,-55.1415 882,-155.708 931.064,-173.769 975.911,-211.587 1008.81,-245.345"/>
<polygon fill="black" stroke="black" points="1006.62,-248.122 1016.07,-252.925 1011.68,-243.281 1006.62,-248.122"/>
</g>
<!-- Input_Calibrated_Factors&#45;&gt;NumFit_Tool -->
<g id="edge11" class="edge"><title>Input_Calibrated_Factors&#45;&gt;NumFit_Tool</title>
<path fill="none" stroke="black" stroke-dasharray="1,5" d="M164.908,-61.6767C298.616,-22.7738 639.758,56.1083 882,-65.7077 955.468,-102.652 1006.75,-184.846 1035.74,-243.848"/>
<polygon fill="black" stroke="black" points="1032.71,-245.618 1040.2,-253.107 1039.01,-242.579 1032.71,-245.618"/>
</g>
<!-- Output_FactorLoadings&#45;&gt;Factor_Calibration -->
<g id="edge15" class="edge"><title>Output_FactorLoadings&#45;&gt;Factor_Calibration</title>
<path fill="none" stroke="black" d="M1410.38,-381.576C1450.82,-390.625 1502.01,-402.081 1549.65,-412.742"/>
<polygon fill="black" stroke="black" points="1548.92,-416.165 1559.45,-414.934 1550.45,-409.334 1548.92,-416.165"/>
<text text-anchor="middle" x="1471" y="-405.508" font-family="Times New Roman,serif" font-size="14.00">~200 assets</text>
</g>
<!-- Output_ConstantVol&#45;&gt;Volatility_Calibration -->
<g id="edge16" class="edge"><title>Output_ConstantVol&#45;&gt;Volatility_Calibration</title>
<path fill="none" stroke="black" d="M1401.41,-310.708C1432.96,-310.708 1472.36,-310.708 1511.89,-310.708"/>
<polygon fill="black" stroke="black" points="1511.94,-314.208 1521.94,-310.708 1511.94,-307.208 1511.94,-314.208"/>
<text text-anchor="middle" x="1471" y="-314.508" font-family="Times New Roman,serif" font-size="14.00">~200 assets</text>
</g>
<!-- Output_Combined&#45;&gt;Combined_Model_Output -->
<g id="edge17" class="edge"><title>Output_Combined&#45;&gt;Combined_Model_Output</title>
<path fill="none" stroke="black" d="M1395.24,-180.967C1437.39,-176.251 1495.54,-169.745 1549.24,-163.737"/>
<polygon fill="black" stroke="black" points="1549.66,-167.212 1559.21,-162.621 1548.88,-160.255 1549.66,-167.212"/>
</g>
</g>
</svg>
