<?xml version="1.0" encoding="UTF-8" standalone="no"?>
<!DOCTYPE svg PUBLIC "-//W3C//DTD SVG 1.1//EN"
 "http://www.w3.org/Graphics/SVG/1.1/DTD/svg11.dtd">
<!-- Generated by graphviz version 2.38.0 (20140413.2041)
 -->
<!-- Title: SimpleMTT Pages: 1 -->
<svg width="1588pt" height="928pt"
 viewBox="0.00 0.00 1588.00 928.00" xmlns="http://www.w3.org/2000/svg" xmlns:xlink="http://www.w3.org/1999/xlink">
<g id="graph0" class="graph" transform="scale(1 1) rotate(0) translate(4 924)">
<title>SimpleMTT</title>
<polygon fill="white" stroke="none" points="-4,4 -4,-924 1584,-924 1584,4 -4,4"/>
<!-- PathSettingTool -->
<g id="node1" class="node"><title>PathSettingTool</title>
<polygon fill="none" stroke="blue" points="562,-402.5 562,-517.5 851,-517.5 851,-402.5 562,-402.5"/>
<text text-anchor="middle" x="653" y="-456.3" font-family="Times New Roman,serif" font-size="14.00">Real World Path Setting Tool</text>
<polyline fill="none" stroke="blue" points="744,-402.5 744,-517.5 "/>
<text text-anchor="middle" x="797.5" y="-502.3" font-family="Times New Roman,serif" font-size="14.00">V2_Best_Views</text>
<polyline fill="none" stroke="blue" points="744,-494.5 851,-494.5 "/>
<text text-anchor="middle" x="797.5" y="-479.3" font-family="Times New Roman,serif" font-size="14.00">#CurveType#</text>
<polyline fill="none" stroke="blue" points="744,-471.5 851,-471.5 "/>
<text text-anchor="middle" x="797.5" y="-456.3" font-family="Times New Roman,serif" font-size="14.00">Real World</text>
<polyline fill="none" stroke="blue" points="744,-448.5 851,-448.5 "/>
<text text-anchor="middle" x="797.5" y="-433.3" font-family="Times New Roman,serif" font-size="14.00">#Economy#</text>
<polyline fill="none" stroke="blue" points="744,-425.5 851,-425.5 "/>
<text text-anchor="middle" x="797.5" y="-410.3" font-family="Times New Roman,serif" font-size="14.00">NONE</text>
</g>
<!-- NominalPath_1Y -->
<g id="node9" class="node"><title>NominalPath_1Y</title>
<polygon fill="none" stroke="purple" points="1002.5,-559 890.5,-559 890.5,-523 1002.5,-523 1002.5,-559"/>
<text text-anchor="middle" x="946.5" y="-537.3" font-family="Times New Roman,serif" font-size="14.00">NominalPath_1Y</text>
</g>
<!-- PathSettingTool&#45;&gt;NominalPath_1Y -->
<g id="edge8" class="edge"><title>PathSettingTool&#45;&gt;NominalPath_1Y</title>
<path fill="none" stroke="black" d="M851.094,-508.87C862.065,-512.604 872.744,-516.238 882.736,-519.639"/>
<polygon fill="black" stroke="black" points="881.89,-523.048 892.484,-522.957 884.145,-516.422 881.89,-523.048"/>
</g>
<!-- NominalPath_10Y -->
<g id="node10" class="node"><title>NominalPath_10Y</title>
<polygon fill="none" stroke="purple" points="1006,-505 887,-505 887,-469 1006,-469 1006,-505"/>
<text text-anchor="middle" x="946.5" y="-483.3" font-family="Times New Roman,serif" font-size="14.00">NominalPath_10Y</text>
</g>
<!-- PathSettingTool&#45;&gt;NominalPath_10Y -->
<g id="edge9" class="edge"><title>PathSettingTool&#45;&gt;NominalPath_10Y</title>
<path fill="none" stroke="black" d="M851.094,-476.29C859.861,-477.285 868.441,-478.258 876.633,-479.187"/>
<polygon fill="black" stroke="black" points="876.456,-482.69 886.787,-480.339 877.246,-475.734 876.456,-482.69"/>
</g>
<!-- InflationPath_1Y -->
<g id="node11" class="node"><title>InflationPath_1Y</title>
<polygon fill="none" stroke="purple" points="1002,-451 891,-451 891,-415 1002,-415 1002,-451"/>
<text text-anchor="middle" x="946.5" y="-429.3" font-family="Times New Roman,serif" font-size="14.00">InflationPath_1Y</text>
</g>
<!-- PathSettingTool&#45;&gt;InflationPath_1Y -->
<g id="edge10" class="edge"><title>PathSettingTool&#45;&gt;InflationPath_1Y</title>
<path fill="none" stroke="black" d="M851.094,-443.71C861.404,-442.54 871.456,-441.4 880.922,-440.326"/>
<polygon fill="black" stroke="black" points="881.407,-443.794 890.949,-439.189 880.618,-436.838 881.407,-443.794"/>
</g>
<!-- RealPath_10Y -->
<g id="node12" class="node"><title>RealPath_10Y</title>
<polygon fill="none" stroke="purple" points="995,-379 898,-379 898,-343 995,-343 995,-379"/>
<text text-anchor="middle" x="946.5" y="-357.3" font-family="Times New Roman,serif" font-size="14.00">RealPath_10Y</text>
</g>
<!-- PathSettingTool&#45;&gt;RealPath_10Y -->
<g id="edge11" class="edge"><title>PathSettingTool&#45;&gt;RealPath_10Y</title>
<path fill="none" stroke="black" d="M845.946,-402.411C862.397,-395.568 878.339,-388.937 892.467,-383.06"/>
<polygon fill="black" stroke="black" points="894.054,-386.191 901.942,-379.119 891.365,-379.728 894.054,-386.191"/>
</g>
<!-- Settings -->
<g id="node2" class="node"><title>Settings</title>
<polygon fill="none" stroke="blue" points="472.5,-810 411.5,-810 411.5,-774 472.5,-774 472.5,-810"/>
<text text-anchor="middle" x="442" y="-788.3" font-family="Times New Roman,serif" font-size="14.00">Settings</text>
</g>
<!-- Settings&#45;&gt;PathSettingTool -->
<g id="edge1" class="edge"><title>Settings&#45;&gt;PathSettingTool</title>
<path fill="none" stroke="black" d="M459.221,-773.662C476.182,-754.346 503.422,-722.918 526,-695 571.471,-638.774 621.244,-573.28 656.82,-525.737"/>
<polygon fill="black" stroke="black" points="659.665,-527.776 662.848,-517.671 654.058,-523.586 659.665,-527.776"/>
</g>
<!-- Assumptions_MRSpeed -->
<g id="node3" class="node"><title>Assumptions_MRSpeed</title>
<polygon fill="none" stroke="blue" points="519.5,-686 364.5,-686 364.5,-650 519.5,-650 519.5,-686"/>
<text text-anchor="middle" x="442" y="-664.3" font-family="Times New Roman,serif" font-size="14.00">Assumptions_MRSpeed</text>
</g>
<!-- Assumptions_MRSpeed&#45;&gt;PathSettingTool -->
<g id="edge2" class="edge"><title>Assumptions_MRSpeed&#45;&gt;PathSettingTool</title>
<path fill="none" stroke="black" d="M465.836,-649.905C500.908,-622.115 569.738,-567.576 624.671,-524.048"/>
<polygon fill="black" stroke="black" points="627.005,-526.663 632.669,-517.71 622.658,-521.177 627.005,-526.663"/>
</g>
<!-- NominalShortPathSource -->
<g id="node4" class="node"><title>NominalShortPathSource</title>
<polygon fill="none" stroke="blue" points="521,-572 363,-572 363,-536 521,-536 521,-572"/>
<text text-anchor="middle" x="442" y="-550.3" font-family="Times New Roman,serif" font-size="14.00">NominalShortPathSource</text>
</g>
<!-- NominalShortPathSource&#45;&gt;PathSettingTool -->
<g id="edge3" class="edge"><title>NominalShortPathSource&#45;&gt;PathSettingTool</title>
<path fill="none" stroke="black" d="M493.302,-535.987C510.679,-529.764 531.162,-522.43 552.431,-514.813"/>
<polygon fill="black" stroke="black" points="553.683,-518.083 561.918,-511.416 551.323,-511.492 553.683,-518.083"/>
</g>
<!-- RealShortPathSource -->
<g id="node5" class="node"><title>RealShortPathSource</title>
<polygon fill="none" stroke="blue" points="510.5,-478 373.5,-478 373.5,-442 510.5,-442 510.5,-478"/>
<text text-anchor="middle" x="442" y="-456.3" font-family="Times New Roman,serif" font-size="14.00">RealShortPathSource</text>
</g>
<!-- RealShortPathSource&#45;&gt;PathSettingTool -->
<g id="edge4" class="edge"><title>RealShortPathSource&#45;&gt;PathSettingTool</title>
<path fill="none" stroke="black" d="M510.6,-460C523.374,-460 537.209,-460 551.413,-460"/>
<polygon fill="black" stroke="black" points="551.81,-463.5 561.81,-460 551.81,-456.5 551.81,-463.5"/>
</g>
<!-- NominalLongTargetSource -->
<g id="node6" class="node"><title>NominalLongTargetSource</title>
<polygon fill="none" stroke="blue" points="526,-394 358,-394 358,-358 526,-358 526,-394"/>
<text text-anchor="middle" x="442" y="-372.3" font-family="Times New Roman,serif" font-size="14.00">NominalLongTargetSource</text>
</g>
<!-- NominalLongTargetSource&#45;&gt;PathSettingTool -->
<g id="edge5" class="edge"><title>NominalLongTargetSource&#45;&gt;PathSettingTool</title>
<path fill="none" stroke="black" d="M499.313,-394.02C515.293,-399.134 533.502,-404.961 552.331,-410.986"/>
<polygon fill="black" stroke="black" points="551.328,-414.34 561.919,-414.054 553.462,-407.673 551.328,-414.34"/>
</g>
<!-- MediumPathTargets -->
<g id="node7" class="node"><title>MediumPathTargets</title>
<polygon fill="none" stroke="blue" points="506.5,-280 377.5,-280 377.5,-244 506.5,-244 506.5,-280"/>
<text text-anchor="middle" x="442" y="-258.3" font-family="Times New Roman,serif" font-size="14.00">MediumPathTargets</text>
</g>
<!-- MediumPathTargets&#45;&gt;PathSettingTool -->
<g id="edge6" class="edge"><title>MediumPathTargets&#45;&gt;PathSettingTool</title>
<path fill="none" stroke="black" d="M467.225,-280.272C501.873,-306.407 567.31,-355.765 620.855,-396.153"/>
<polygon fill="black" stroke="black" points="618.91,-399.07 629.001,-402.298 623.125,-393.482 618.91,-399.07"/>
</g>
<!-- Assumptions_LongRates -->
<g id="node8" class="node"><title>Assumptions_LongRates</title>
<polygon fill="none" stroke="blue" points="521,-106 363,-106 363,-70 521,-70 521,-106"/>
<text text-anchor="middle" x="442" y="-84.3" font-family="Times New Roman,serif" font-size="14.00">Assumptions_LongRates</text>
</g>
<!-- Assumptions_LongRates&#45;&gt;PathSettingTool -->
<g id="edge7" class="edge"><title>Assumptions_LongRates&#45;&gt;PathSettingTool</title>
<path fill="none" stroke="black" d="M455.839,-106.194C492.235,-157.773 597.435,-306.856 659.046,-394.168"/>
<polygon fill="black" stroke="black" points="656.243,-396.267 664.868,-402.419 661.963,-392.231 656.243,-396.267"/>
</g>
<!-- Output_Nominal -->
<g id="node13" class="node"><title>Output_Nominal</title>
<polygon fill="none" stroke="blue" points="1155.5,-559 1045.5,-559 1045.5,-523 1155.5,-523 1155.5,-559"/>
<text text-anchor="middle" x="1100.5" y="-537.3" font-family="Times New Roman,serif" font-size="14.00">Output_Nominal</text>
</g>
<!-- NominalPath_1Y&#45;&gt;Output_Nominal -->
<g id="edge12" class="edge"><title>NominalPath_1Y&#45;&gt;Output_Nominal</title>
<path fill="none" stroke="black" d="M1002.81,-541C1013.29,-541 1024.34,-541 1035.08,-541"/>
<polygon fill="black" stroke="black" points="1035.25,-544.5 1045.25,-541 1035.25,-537.5 1035.25,-544.5"/>
</g>
<!-- NominalPath_10Y&#45;&gt;Output_Nominal -->
<g id="edge13" class="edge"><title>NominalPath_10Y&#45;&gt;Output_Nominal</title>
<path fill="none" stroke="black" d="M998.537,-505.131C1011.51,-509.742 1025.58,-514.741 1038.98,-519.501"/>
<polygon fill="black" stroke="black" points="1038,-522.867 1048.6,-522.916 1040.35,-516.271 1038,-522.867"/>
</g>
<!-- Output_Inflation -->
<g id="node14" class="node"><title>Output_Inflation</title>
<polygon fill="none" stroke="blue" points="1155,-451 1046,-451 1046,-415 1155,-415 1155,-451"/>
<text text-anchor="middle" x="1100.5" y="-429.3" font-family="Times New Roman,serif" font-size="14.00">Output_Inflation</text>
</g>
<!-- InflationPath_1Y&#45;&gt;Output_Inflation -->
<g id="edge14" class="edge"><title>InflationPath_1Y&#45;&gt;Output_Inflation</title>
<path fill="none" stroke="black" d="M1002.38,-433C1013.25,-433 1024.75,-433 1035.88,-433"/>
<polygon fill="black" stroke="black" points="1035.98,-436.5 1045.98,-433 1035.98,-429.5 1035.98,-436.5"/>
</g>
<!-- Output_RealLong -->
<g id="node15" class="node"><title>Output_RealLong</title>
<polygon fill="none" stroke="blue" points="1159,-345 1042,-345 1042,-309 1159,-309 1159,-345"/>
<text text-anchor="middle" x="1100.5" y="-323.3" font-family="Times New Roman,serif" font-size="14.00">Output_RealLong</text>
</g>
<!-- RealPath_10Y&#45;&gt;Output_RealLong -->
<g id="edge15" class="edge"><title>RealPath_10Y&#45;&gt;Output_RealLong</title>
<path fill="none" stroke="black" d="M995.177,-350.335C1006.86,-347.723 1019.58,-344.878 1031.99,-342.101"/>
<polygon fill="black" stroke="black" points="1032.86,-345.493 1041.85,-339.894 1031.33,-338.662 1032.86,-345.493"/>
</g>
<!-- Outputs_Nominal_Model -->
<g id="node23" class="node"><title>Outputs_Nominal_Model</title>
<polygon fill="none" stroke="green" points="1270,-498.5 1270,-613.5 1505,-613.5 1505,-498.5 1270,-498.5"/>
<text text-anchor="middle" x="1334" y="-552.3" font-family="Times New Roman,serif" font-size="14.00">Targets.Rates.Paths</text>
<polyline fill="none" stroke="green" points="1398,-498.5 1398,-613.5 "/>
<text text-anchor="middle" x="1451.5" y="-598.3" font-family="Times New Roman,serif" font-size="14.00">V2_Best_Views</text>
<polyline fill="none" stroke="green" points="1398,-590.5 1505,-590.5 "/>
<text text-anchor="middle" x="1451.5" y="-575.3" font-family="Times New Roman,serif" font-size="14.00">#CurveType#</text>
<polyline fill="none" stroke="green" points="1398,-567.5 1505,-567.5 "/>
<text text-anchor="middle" x="1451.5" y="-552.3" font-family="Times New Roman,serif" font-size="14.00">Real World</text>
<polyline fill="none" stroke="green" points="1398,-544.5 1505,-544.5 "/>
<text text-anchor="middle" x="1451.5" y="-529.3" font-family="Times New Roman,serif" font-size="14.00">#Econ#</text>
<polyline fill="none" stroke="green" points="1398,-521.5 1505,-521.5 "/>
<text text-anchor="middle" x="1451.5" y="-506.3" font-family="Times New Roman,serif" font-size="14.00">NONE</text>
</g>
<!-- Output_Nominal&#45;&gt;Outputs_Nominal_Model -->
<g id="edge16" class="edge"><title>Output_Nominal&#45;&gt;Outputs_Nominal_Model</title>
<path fill="none" stroke="black" d="M1155.78,-543.857C1185.3,-545.411 1223.16,-547.403 1259.63,-549.323"/>
<polygon fill="black" stroke="black" points="1259.7,-552.831 1269.87,-549.862 1260.07,-545.841 1259.7,-552.831"/>
</g>
<!-- Outputs_Inflation_Model -->
<g id="node24" class="node"><title>Outputs_Inflation_Model</title>
<polygon fill="none" stroke="green" points="1195,-387 1195,-479 1580,-479 1580,-387 1195,-387"/>
<text text-anchor="middle" x="1295" y="-429.3" font-family="Times New Roman,serif" font-size="14.00">Targets.Paths.BreakevenInflation</text>
<polyline fill="none" stroke="green" points="1395,-387 1395,-479 "/>
<text text-anchor="middle" x="1487.5" y="-463.8" font-family="Times New Roman,serif" font-size="14.00">V2_Best_Views#CurveType#</text>
<polyline fill="none" stroke="green" points="1395,-456 1580,-456 "/>
<text text-anchor="middle" x="1487.5" y="-440.8" font-family="Times New Roman,serif" font-size="14.00">Real World</text>
<polyline fill="none" stroke="green" points="1395,-433 1580,-433 "/>
<text text-anchor="middle" x="1487.5" y="-417.8" font-family="Times New Roman,serif" font-size="14.00">#Econ#</text>
<polyline fill="none" stroke="green" points="1395,-410 1580,-410 "/>
<text text-anchor="middle" x="1487.5" y="-394.8" font-family="Times New Roman,serif" font-size="14.00">NONE</text>
</g>
<!-- Output_Inflation&#45;&gt;Outputs_Inflation_Model -->
<g id="edge17" class="edge"><title>Output_Inflation&#45;&gt;Outputs_Inflation_Model</title>
<path fill="none" stroke="black" d="M1155.11,-433C1164.27,-433 1174.25,-433 1184.76,-433"/>
<polygon fill="black" stroke="black" points="1184.98,-436.5 1194.98,-433 1184.98,-429.5 1184.98,-436.5"/>
</g>
<!-- Outputs_RealLong_Model -->
<g id="node25" class="node"><title>Outputs_RealLong_Model</title>
<polygon fill="none" stroke="green" points="1246,-252.5 1246,-367.5 1529,-367.5 1529,-252.5 1246,-252.5"/>
<text text-anchor="middle" x="1334" y="-306.3" font-family="Times New Roman,serif" font-size="14.00">Targets.Paths.RealLongRate</text>
<polyline fill="none" stroke="green" points="1422,-252.5 1422,-367.5 "/>
<text text-anchor="middle" x="1475.5" y="-352.3" font-family="Times New Roman,serif" font-size="14.00">V2_Best_Views</text>
<polyline fill="none" stroke="green" points="1422,-344.5 1529,-344.5 "/>
<text text-anchor="middle" x="1475.5" y="-329.3" font-family="Times New Roman,serif" font-size="14.00">#CurveType#</text>
<polyline fill="none" stroke="green" points="1422,-321.5 1529,-321.5 "/>
<text text-anchor="middle" x="1475.5" y="-306.3" font-family="Times New Roman,serif" font-size="14.00">Real World</text>
<polyline fill="none" stroke="green" points="1422,-298.5 1529,-298.5 "/>
<text text-anchor="middle" x="1475.5" y="-283.3" font-family="Times New Roman,serif" font-size="14.00">#Econ#</text>
<polyline fill="none" stroke="green" points="1422,-275.5 1529,-275.5 "/>
<text text-anchor="middle" x="1475.5" y="-260.3" font-family="Times New Roman,serif" font-size="14.00">NONE</text>
</g>
<!-- Output_RealLong&#45;&gt;Outputs_RealLong_Model -->
<g id="edge18" class="edge"><title>Output_RealLong&#45;&gt;Outputs_RealLong_Model</title>
<path fill="none" stroke="black" d="M1159.17,-323.56C1181.63,-322.22 1208.5,-320.618 1235.77,-318.991"/>
<polygon fill="black" stroke="black" points="1236.06,-322.48 1245.83,-318.391 1235.64,-315.492 1236.06,-322.48"/>
</g>
<!-- Settings_Model -->
<g id="node16" class="node"><title>Settings_Model</title>
<polygon fill="none" stroke="orange" points="0,-804.5 0,-919.5 322,-919.5 322,-804.5 0,-804.5"/>
<text text-anchor="middle" x="107.5" y="-858.3" font-family="Times New Roman,serif" font-size="14.00">Settings.RealWorldPathSettingTool</text>
<polyline fill="none" stroke="orange" points="215,-804.5 215,-919.5 "/>
<text text-anchor="middle" x="268.5" y="-904.3" font-family="Times New Roman,serif" font-size="14.00">V2_Best_Views</text>
<polyline fill="none" stroke="orange" points="215,-896.5 322,-896.5 "/>
<text text-anchor="middle" x="268.5" y="-881.3" font-family="Times New Roman,serif" font-size="14.00">#CurveType#</text>
<polyline fill="none" stroke="orange" points="215,-873.5 322,-873.5 "/>
<text text-anchor="middle" x="268.5" y="-858.3" font-family="Times New Roman,serif" font-size="14.00">Real World</text>
<polyline fill="none" stroke="orange" points="215,-850.5 322,-850.5 "/>
<text text-anchor="middle" x="268.5" y="-835.3" font-family="Times New Roman,serif" font-size="14.00">#Economy#</text>
<polyline fill="none" stroke="orange" points="215,-827.5 322,-827.5 "/>
<text text-anchor="middle" x="268.5" y="-812.3" font-family="Times New Roman,serif" font-size="14.00">NONE</text>
</g>
<!-- Settings_Model&#45;&gt;Settings -->
<g id="edge19" class="edge"><title>Settings_Model&#45;&gt;Settings</title>
<path fill="none" stroke="black" d="M322.274,-821.788C351.839,-814.37 380.131,-807.272 401.676,-801.866"/>
<polygon fill="black" stroke="black" points="402.535,-805.259 411.383,-799.431 400.831,-798.47 402.535,-805.259"/>
</g>
<!-- Assumptions_MRSpeed_Model -->
<g id="node17" class="node"><title>Assumptions_MRSpeed_Model</title>
<polygon fill="none" stroke="green" points="18.5,-670.5 18.5,-785.5 303.5,-785.5 303.5,-670.5 18.5,-670.5"/>
<text text-anchor="middle" x="110.5" y="-724.3" font-family="Times New Roman,serif" font-size="14.00">Assumptions.NYC.MRSpeed</text>
<polyline fill="none" stroke="green" points="202.5,-670.5 202.5,-785.5 "/>
<text text-anchor="middle" x="253" y="-770.3" font-family="Times New Roman,serif" font-size="14.00">B+H_Standard</text>
<polyline fill="none" stroke="green" points="202.5,-762.5 303.5,-762.5 "/>
<text text-anchor="middle" x="253" y="-747.3" font-family="Times New Roman,serif" font-size="14.00">G</text>
<polyline fill="none" stroke="green" points="202.5,-739.5 303.5,-739.5 "/>
<text text-anchor="middle" x="253" y="-724.3" font-family="Times New Roman,serif" font-size="14.00">Real World</text>
<polyline fill="none" stroke="green" points="202.5,-716.5 303.5,-716.5 "/>
<text text-anchor="middle" x="253" y="-701.3" font-family="Times New Roman,serif" font-size="14.00">ALL</text>
<polyline fill="none" stroke="green" points="202.5,-693.5 303.5,-693.5 "/>
<text text-anchor="middle" x="253" y="-678.3" font-family="Times New Roman,serif" font-size="14.00">NONE</text>
</g>
<!-- Assumptions_MRSpeed_Model&#45;&gt;Assumptions_MRSpeed -->
<g id="edge20" class="edge"><title>Assumptions_MRSpeed_Model&#45;&gt;Assumptions_MRSpeed</title>
<path fill="none" stroke="black" d="M303.543,-697.561C320.857,-693.837 338.129,-690.123 354.292,-686.647"/>
<polygon fill="black" stroke="black" points="355.163,-690.04 364.203,-684.515 353.691,-683.196 355.163,-690.04"/>
</g>
<!-- NominalShortPathSource_Model -->
<g id="node18" class="node"><title>NominalShortPathSource_Model</title>
<polygon fill="none" stroke="green" points="34.5,-536.5 34.5,-651.5 287.5,-651.5 287.5,-536.5 34.5,-536.5"/>
<text text-anchor="middle" x="113.5" y="-590.3" font-family="Times New Roman,serif" font-size="14.00">Econ.NYC.Ext2FBK.YC</text>
<polyline fill="none" stroke="green" points="192.5,-536.5 192.5,-651.5 "/>
<text text-anchor="middle" x="240" y="-636.3" font-family="Times New Roman,serif" font-size="14.00">NYC_Market</text>
<polyline fill="none" stroke="green" points="192.5,-628.5 287.5,-628.5 "/>
<text text-anchor="middle" x="240" y="-613.3" font-family="Times New Roman,serif" font-size="14.00">#CurveType#</text>
<polyline fill="none" stroke="green" points="192.5,-605.5 287.5,-605.5 "/>
<text text-anchor="middle" x="240" y="-590.3" font-family="Times New Roman,serif" font-size="14.00">Real World</text>
<polyline fill="none" stroke="green" points="192.5,-582.5 287.5,-582.5 "/>
<text text-anchor="middle" x="240" y="-567.3" font-family="Times New Roman,serif" font-size="14.00">#Economy#</text>
<polyline fill="none" stroke="green" points="192.5,-559.5 287.5,-559.5 "/>
<text text-anchor="middle" x="240" y="-544.3" font-family="Times New Roman,serif" font-size="14.00">NONE</text>
</g>
<!-- NominalShortPathSource_Model&#45;&gt;NominalShortPathSource -->
<g id="edge21" class="edge"><title>NominalShortPathSource_Model&#45;&gt;NominalShortPathSource</title>
<path fill="none" stroke="black" d="M287.625,-575.989C309.625,-572.835 332.091,-569.614 352.803,-566.645"/>
<polygon fill="black" stroke="black" points="353.419,-570.092 362.821,-565.209 352.425,-563.163 353.419,-570.092"/>
</g>
<!-- RealShortPathSource_Model -->
<g id="node19" class="node"><title>RealShortPathSource_Model</title>
<polygon fill="none" stroke="green" points="48,-402.5 48,-517.5 274,-517.5 274,-402.5 48,-402.5"/>
<text text-anchor="middle" x="107.5" y="-456.3" font-family="Times New Roman,serif" font-size="14.00">Econ.RYC.2FVas</text>
<polyline fill="none" stroke="green" points="167,-402.5 167,-517.5 "/>
<text text-anchor="middle" x="220.5" y="-502.3" font-family="Times New Roman,serif" font-size="14.00">V2_Best_Views</text>
<polyline fill="none" stroke="green" points="167,-494.5 274,-494.5 "/>
<text text-anchor="middle" x="220.5" y="-479.3" font-family="Times New Roman,serif" font-size="14.00">G</text>
<polyline fill="none" stroke="green" points="167,-471.5 274,-471.5 "/>
<text text-anchor="middle" x="220.5" y="-456.3" font-family="Times New Roman,serif" font-size="14.00">Real World</text>
<polyline fill="none" stroke="green" points="167,-448.5 274,-448.5 "/>
<text text-anchor="middle" x="220.5" y="-433.3" font-family="Times New Roman,serif" font-size="14.00">#Economy#</text>
<polyline fill="none" stroke="green" points="167,-425.5 274,-425.5 "/>
<text text-anchor="middle" x="220.5" y="-410.3" font-family="Times New Roman,serif" font-size="14.00">NONE</text>
</g>
<!-- RealShortPathSource_Model&#45;&gt;RealShortPathSource -->
<g id="edge22" class="edge"><title>RealShortPathSource_Model&#45;&gt;RealShortPathSource</title>
<path fill="none" stroke="black" d="M274.274,-460C304.081,-460 335.614,-460 363.139,-460"/>
<polygon fill="black" stroke="black" points="363.48,-463.5 373.48,-460 363.48,-456.5 363.48,-463.5"/>
</g>
<!-- MediumPathTargets_Model -->
<g id="node20" class="node"><title>MediumPathTargets_Model</title>
<polygon fill="none" stroke="green" points="36,-134.5 36,-249.5 286,-249.5 286,-134.5 36,-134.5"/>
<text text-anchor="middle" x="113.5" y="-188.3" font-family="Times New Roman,serif" font-size="14.00">Assumptions.RateLevels</text>
<polyline fill="none" stroke="green" points="191,-134.5 191,-249.5 "/>
<text text-anchor="middle" x="238.5" y="-234.3" font-family="Times New Roman,serif" font-size="14.00">ECCA</text>
<polyline fill="none" stroke="green" points="191,-226.5 286,-226.5 "/>
<text text-anchor="middle" x="238.5" y="-211.3" font-family="Times New Roman,serif" font-size="14.00">#CurveType#</text>
<polyline fill="none" stroke="green" points="191,-203.5 286,-203.5 "/>
<text text-anchor="middle" x="238.5" y="-188.3" font-family="Times New Roman,serif" font-size="14.00">Real World</text>
<polyline fill="none" stroke="green" points="191,-180.5 286,-180.5 "/>
<text text-anchor="middle" x="238.5" y="-165.3" font-family="Times New Roman,serif" font-size="14.00">#Economy#</text>
<polyline fill="none" stroke="green" points="191,-157.5 286,-157.5 "/>
<text text-anchor="middle" x="238.5" y="-142.3" font-family="Times New Roman,serif" font-size="14.00">NONE</text>
</g>
<!-- MediumPathTargets_Model&#45;&gt;MediumPathTargets -->
<g id="edge24" class="edge"><title>MediumPathTargets_Model&#45;&gt;MediumPathTargets</title>
<path fill="none" stroke="black" d="M286.405,-223.213C314.114,-230.165 342.627,-237.319 367.502,-243.56"/>
<polygon fill="black" stroke="black" points="366.654,-246.955 377.205,-245.994 368.357,-240.166 366.654,-246.955"/>
</g>
<!-- NominalLongTargetSource_Model -->
<g id="node21" class="node"><title>NominalLongTargetSource_Model</title>
<polygon fill="none" stroke="green" points="15.5,-268.5 15.5,-383.5 306.5,-383.5 306.5,-268.5 15.5,-268.5"/>
<text text-anchor="middle" x="113.5" y="-322.3" font-family="Times New Roman,serif" font-size="14.00">Econ.NYC.Ext2FBK.TP.TVTP</text>
<polyline fill="none" stroke="green" points="211.5,-268.5 211.5,-383.5 "/>
<text text-anchor="middle" x="259" y="-368.3" font-family="Times New Roman,serif" font-size="14.00">Best_Views</text>
<polyline fill="none" stroke="green" points="211.5,-360.5 306.5,-360.5 "/>
<text text-anchor="middle" x="259" y="-345.3" font-family="Times New Roman,serif" font-size="14.00">#CurveType#</text>
<polyline fill="none" stroke="green" points="211.5,-337.5 306.5,-337.5 "/>
<text text-anchor="middle" x="259" y="-322.3" font-family="Times New Roman,serif" font-size="14.00">Real World</text>
<polyline fill="none" stroke="green" points="211.5,-314.5 306.5,-314.5 "/>
<text text-anchor="middle" x="259" y="-299.3" font-family="Times New Roman,serif" font-size="14.00">#Economy#</text>
<polyline fill="none" stroke="green" points="211.5,-291.5 306.5,-291.5 "/>
<text text-anchor="middle" x="259" y="-276.3" font-family="Times New Roman,serif" font-size="14.00">NONE</text>
</g>
<!-- NominalLongTargetSource_Model&#45;&gt;NominalLongTargetSource -->
<g id="edge23" class="edge"><title>NominalLongTargetSource_Model&#45;&gt;NominalLongTargetSource</title>
<path fill="none" stroke="black" d="M306.812,-351.952C320.769,-354.453 334.655,-356.942 347.91,-359.317"/>
<polygon fill="black" stroke="black" points="347.453,-362.791 357.914,-361.11 348.688,-355.901 347.453,-362.791"/>
</g>
<!-- Assumptions_LongRates_Model -->
<g id="node22" class="node"><title>Assumptions_LongRates_Model</title>
<polygon fill="none" stroke="green" points="33,-0.5 33,-115.5 289,-115.5 289,-0.5 33,-0.5"/>
<text text-anchor="middle" x="110.5" y="-54.3" font-family="Times New Roman,serif" font-size="14.00">Assumptions.RateLevels</text>
<polyline fill="none" stroke="green" points="188,-0.5 188,-115.5 "/>
<text text-anchor="middle" x="238.5" y="-100.3" font-family="Times New Roman,serif" font-size="14.00">B+H_Standard</text>
<polyline fill="none" stroke="green" points="188,-92.5 289,-92.5 "/>
<text text-anchor="middle" x="238.5" y="-77.3" font-family="Times New Roman,serif" font-size="14.00">#CurveType#</text>
<polyline fill="none" stroke="green" points="188,-69.5 289,-69.5 "/>
<text text-anchor="middle" x="238.5" y="-54.3" font-family="Times New Roman,serif" font-size="14.00">Real World</text>
<polyline fill="none" stroke="green" points="188,-46.5 289,-46.5 "/>
<text text-anchor="middle" x="238.5" y="-31.3" font-family="Times New Roman,serif" font-size="14.00">#Economy#</text>
<polyline fill="none" stroke="green" points="188,-23.5 289,-23.5 "/>
<text text-anchor="middle" x="238.5" y="-8.3" font-family="Times New Roman,serif" font-size="14.00">NONE</text>
</g>
<!-- Assumptions_LongRates_Model&#45;&gt;Assumptions_LongRates -->
<g id="edge25" class="edge"><title>Assumptions_LongRates_Model&#45;&gt;Assumptions_LongRates</title>
<path fill="none" stroke="black" d="M289.253,-71.6831C310.646,-73.9834 332.426,-76.3253 352.559,-78.4902"/>
<polygon fill="black" stroke="black" points="352.296,-81.982 362.613,-79.5713 353.045,-75.0222 352.296,-81.982"/>
</g>
</g>
</svg>
