<?xml version="1.0" encoding="UTF-8" standalone="no"?>
<!DOCTYPE svg PUBLIC "-//W3C//DTD SVG 1.1//EN"
 "http://www.w3.org/Graphics/SVG/1.1/DTD/svg11.dtd">
<!-- Generated by graphviz version 2.38.0 (20140413.2041)
 -->
<!-- Title: SimpleMTT Pages: 1 -->
<svg width="4133pt" height="958pt"
 viewBox="0.00 0.00 4133.00 958.00" xmlns="http://www.w3.org/2000/svg" xmlns:xlink="http://www.w3.org/1999/xlink">
<g id="graph0" class="graph" transform="scale(1 1) rotate(0) translate(4 954)">
<title>SimpleMTT</title>
<polygon fill="white" stroke="none" points="-4,4 -4,-954 4129,-954 4129,4 -4,4"/>
<g id="clust1" class="cluster"><title>cluster_fromConst_in</title>
<polygon fill="none" stroke="black" points="8,-8 8,-297 367,-297 367,-8 8,-8"/>
<text text-anchor="middle" x="187.5" y="-281.8" font-family="Times New Roman,serif" font-size="14.00">From ConstVol Tool</text>
</g>
<g id="clust2" class="cluster"><title>cluster_finalModels_out</title>
<polygon fill="none" stroke="black" points="3779,-412 3779,-835 4117,-835 4117,-412 3779,-412"/>
<text text-anchor="middle" x="3948" y="-819.8" font-family="Times New Roman,serif" font-size="14.00">Final Required Model Outputs</text>
</g>
<g id="clust3" class="cluster"><title>cluster_anchored_factor_in</title>
<polygon fill="none" stroke="black" points="388,-229 388,-520 1279,-520 1279,-229 388,-229"/>
<text text-anchor="middle" x="833.5" y="-504.8" font-family="Times New Roman,serif" font-size="14.00">SVJD Factor Vol Tool</text>
</g>
<g id="clust5" class="cluster"><title>cluster_asset_sorter</title>
<polygon fill="none" stroke="black" points="2995,-596 2995,-751 3693,-751 3693,-596 2995,-596"/>
<text text-anchor="middle" x="3344" y="-735.8" font-family="Times New Roman,serif" font-size="14.00">Sorter Tool for Individual Assets</text>
</g>
<g id="clust4" class="cluster"><title>cluster_anchored_numeric_in</title>
<polygon fill="none" stroke="black" points="1634,-350 1634,-749 2514,-749 2514,-350 1634,-350"/>
<text text-anchor="middle" x="2074" y="-733.8" font-family="Times New Roman,serif" font-size="14.00">SVJD Asset Vol Tool</text>
</g>
<!-- FactorFit_Tool -->
<g id="node1" class="node"><title>FactorFit_Tool</title>
<polygon fill="none" stroke="blue" points="700,-314.5 700,-429.5 1038,-429.5 1038,-314.5 700,-314.5"/>
<text text-anchor="middle" x="807" y="-368.3" font-family="Times New Roman,serif" font-size="14.00">SVJD Equity Factor Volatility Tool</text>
<polyline fill="none" stroke="blue" points="914,-314.5 914,-429.5 "/>
<text text-anchor="middle" x="976" y="-414.3" font-family="Times New Roman,serif" font-size="14.00">Best_Views_SVJD</text>
<polyline fill="none" stroke="blue" points="914,-406.5 1038,-406.5 "/>
<text text-anchor="middle" x="976" y="-391.3" font-family="Times New Roman,serif" font-size="14.00">NONE</text>
<polyline fill="none" stroke="blue" points="914,-383.5 1038,-383.5 "/>
<text text-anchor="middle" x="976" y="-368.3" font-family="Times New Roman,serif" font-size="14.00">Real World</text>
<polyline fill="none" stroke="blue" points="914,-360.5 1038,-360.5 "/>
<text text-anchor="middle" x="976" y="-345.3" font-family="Times New Roman,serif" font-size="14.00">E_ALL</text>
<polyline fill="none" stroke="blue" points="914,-337.5 1038,-337.5 "/>
<text text-anchor="middle" x="976" y="-322.3" font-family="Times New Roman,serif" font-size="14.00">NONE</text>
</g>
<!-- Output_Intermediate_FactorVol -->
<g id="node23" class="node"><title>Output_Intermediate_FactorVol</title>
<polygon fill="none" stroke="blue" points="1271,-393 1075,-393 1075,-357 1271,-357 1271,-393"/>
<text text-anchor="middle" x="1173" y="-371.3" font-family="Times New Roman,serif" font-size="14.00">Output_Intermediate_FactorVol</text>
</g>
<!-- FactorFit_Tool&#45;&gt;Output_Intermediate_FactorVol -->
<g id="edge1" class="edge"><title>FactorFit_Tool&#45;&gt;Output_Intermediate_FactorVol</title>
<path fill="none" stroke="black" d="M1038.22,-373.671C1047.18,-373.76 1056.05,-373.848 1064.71,-373.934"/>
<polygon fill="black" stroke="black" points="1064.75,-377.435 1074.78,-374.034 1064.81,-370.435 1064.75,-377.435"/>
</g>
<!-- SVJD_Asset_Tool -->
<g id="node2" class="node"><title>SVJD_Asset_Tool</title>
<polygon fill="none" stroke="blue" points="1946,-453.5 1946,-568.5 2275,-568.5 2275,-453.5 1946,-453.5"/>
<text text-anchor="middle" x="2048.5" y="-507.3" font-family="Times New Roman,serif" font-size="14.00">SVJD Equity AssetVolatility Tool</text>
<polyline fill="none" stroke="blue" points="2151,-453.5 2151,-568.5 "/>
<text text-anchor="middle" x="2213" y="-553.3" font-family="Times New Roman,serif" font-size="14.00">Best_Views_SVJD</text>
<polyline fill="none" stroke="blue" points="2151,-545.5 2275,-545.5 "/>
<text text-anchor="middle" x="2213" y="-530.3" font-family="Times New Roman,serif" font-size="14.00">NONE</text>
<polyline fill="none" stroke="blue" points="2151,-522.5 2275,-522.5 "/>
<text text-anchor="middle" x="2213" y="-507.3" font-family="Times New Roman,serif" font-size="14.00">Real World</text>
<polyline fill="none" stroke="blue" points="2151,-499.5 2275,-499.5 "/>
<text text-anchor="middle" x="2213" y="-484.3" font-family="Times New Roman,serif" font-size="14.00">E_ALL</text>
<polyline fill="none" stroke="blue" points="2151,-476.5 2275,-476.5 "/>
<text text-anchor="middle" x="2213" y="-461.3" font-family="Times New Roman,serif" font-size="14.00">NONE</text>
</g>
<!-- Output_Combined_AssetSVJD -->
<g id="node31" class="node"><title>Output_Combined_AssetSVJD</title>
<polygon fill="none" stroke="blue" points="2506,-570 2312,-570 2312,-534 2506,-534 2506,-570"/>
<text text-anchor="middle" x="2409" y="-548.3" font-family="Times New Roman,serif" font-size="14.00">Output_Combined_AssetSVJD</text>
</g>
<!-- SVJD_Asset_Tool&#45;&gt;Output_Combined_AssetSVJD -->
<g id="edge2" class="edge"><title>SVJD_Asset_Tool&#45;&gt;Output_Combined_AssetSVJD</title>
<path fill="none" stroke="black" d="M2275.36,-533.659C2284.31,-534.896 2293.19,-536.124 2301.85,-537.322"/>
<polygon fill="black" stroke="black" points="2301.54,-540.812 2311.92,-538.715 2302.5,-533.878 2301.54,-540.812"/>
</g>
<!-- Output_SVJD_FactorModel -->
<g id="node32" class="node"><title>Output_SVJD_FactorModel</title>
<polygon fill="none" stroke="blue" points="2497,-512 2321,-512 2321,-476 2497,-476 2497,-512"/>
<text text-anchor="middle" x="2409" y="-490.3" font-family="Times New Roman,serif" font-size="14.00">Output_SVJD_FactorModel</text>
</g>
<!-- SVJD_Asset_Tool&#45;&gt;Output_SVJD_FactorModel -->
<g id="edge3" class="edge"><title>SVJD_Asset_Tool&#45;&gt;Output_SVJD_FactorModel</title>
<path fill="none" stroke="black" d="M2275.36,-501.605C2287.48,-500.91 2299.46,-500.223 2310.97,-499.563"/>
<polygon fill="black" stroke="black" points="2311.17,-503.058 2320.95,-498.991 2310.77,-496.069 2311.17,-503.058"/>
</g>
<!-- SVJD_Asset_Sorter -->
<g id="node3" class="node"><title>SVJD_Asset_Sorter</title>
<polygon fill="none" stroke="blue" points="3156,-604.5 3156,-719.5 3496,-719.5 3496,-604.5 3156,-604.5"/>
<text text-anchor="middle" x="3264" y="-658.3" font-family="Times New Roman,serif" font-size="14.00">SVJD Equity Volatility Asset Sorter</text>
<polyline fill="none" stroke="blue" points="3372,-604.5 3372,-719.5 "/>
<text text-anchor="middle" x="3434" y="-704.3" font-family="Times New Roman,serif" font-size="14.00">Best_Views_SVJD</text>
<polyline fill="none" stroke="blue" points="3372,-696.5 3496,-696.5 "/>
<text text-anchor="middle" x="3434" y="-681.3" font-family="Times New Roman,serif" font-size="14.00">NONE</text>
<polyline fill="none" stroke="blue" points="3372,-673.5 3496,-673.5 "/>
<text text-anchor="middle" x="3434" y="-658.3" font-family="Times New Roman,serif" font-size="14.00">Real World</text>
<polyline fill="none" stroke="blue" points="3372,-650.5 3496,-650.5 "/>
<text text-anchor="middle" x="3434" y="-635.3" font-family="Times New Roman,serif" font-size="14.00">~200 assets</text>
<polyline fill="none" stroke="blue" points="3372,-627.5 3496,-627.5 "/>
<text text-anchor="middle" x="3434" y="-612.3" font-family="Times New Roman,serif" font-size="14.00">NONE</text>
</g>
<!-- Output_FactorLoadings -->
<g id="node35" class="node"><title>Output_FactorLoadings</title>
<polygon fill="none" stroke="blue" points="3685,-650 3533,-650 3533,-614 3685,-614 3685,-650"/>
<text text-anchor="middle" x="3609" y="-628.3" font-family="Times New Roman,serif" font-size="14.00">Output_FactorLoadings</text>
</g>
<!-- SVJD_Asset_Sorter&#45;&gt;Output_FactorLoadings -->
<g id="edge32" class="edge"><title>SVJD_Asset_Sorter&#45;&gt;Output_FactorLoadings</title>
<path fill="none" stroke="black" d="M3496.13,-643.943C3505.24,-642.971 3514.18,-642.016 3522.79,-641.097"/>
<polygon fill="black" stroke="black" points="3523.16,-644.577 3532.73,-640.036 3522.42,-637.617 3523.16,-644.577"/>
</g>
<!-- Output_SVJD -->
<g id="node36" class="node"><title>Output_SVJD</title>
<polygon fill="none" stroke="blue" points="3657,-712 3561,-712 3561,-676 3657,-676 3657,-712"/>
<text text-anchor="middle" x="3609" y="-690.3" font-family="Times New Roman,serif" font-size="14.00">Output_SVJD</text>
</g>
<!-- SVJD_Asset_Sorter&#45;&gt;Output_SVJD -->
<g id="edge33" class="edge"><title>SVJD_Asset_Sorter&#45;&gt;Output_SVJD</title>
<path fill="none" stroke="black" d="M3496.13,-681.261C3515.49,-683.465 3534.09,-685.583 3550.37,-687.438"/>
<polygon fill="black" stroke="black" points="3550.4,-690.963 3560.73,-688.617 3551.19,-684.008 3550.4,-690.963"/>
</g>
<!-- Tool_Settings_Factor -->
<g id="node4" class="node"><title>Tool_Settings_Factor</title>
<polygon fill="none" stroke="green" points="36.5,-439.5 36.5,-554.5 338.5,-554.5 338.5,-439.5 36.5,-439.5"/>
<text text-anchor="middle" x="125.5" y="-493.3" font-family="Times New Roman,serif" font-size="14.00">Settings.Equity.SVJD.Factor</text>
<polyline fill="none" stroke="green" points="214.5,-439.5 214.5,-554.5 "/>
<text text-anchor="middle" x="276.5" y="-539.3" font-family="Times New Roman,serif" font-size="14.00">Best_Views_SVJD</text>
<polyline fill="none" stroke="green" points="214.5,-531.5 338.5,-531.5 "/>
<text text-anchor="middle" x="276.5" y="-516.3" font-family="Times New Roman,serif" font-size="14.00">NONE</text>
<polyline fill="none" stroke="green" points="214.5,-508.5 338.5,-508.5 "/>
<text text-anchor="middle" x="276.5" y="-493.3" font-family="Times New Roman,serif" font-size="14.00">Real World</text>
<polyline fill="none" stroke="green" points="214.5,-485.5 338.5,-485.5 "/>
<text text-anchor="middle" x="276.5" y="-470.3" font-family="Times New Roman,serif" font-size="14.00">E_ALL</text>
<polyline fill="none" stroke="green" points="214.5,-462.5 338.5,-462.5 "/>
<text text-anchor="middle" x="276.5" y="-447.3" font-family="Times New Roman,serif" font-size="14.00">NONE</text>
</g>
<!-- FactorFit_Tool_Settings -->
<g id="node19" class="node"><title>FactorFit_Tool_Settings</title>
<polygon fill="none" stroke="blue" points="575.5,-435 483.5,-435 483.5,-399 575.5,-399 575.5,-435"/>
<text text-anchor="middle" x="529.5" y="-413.3" font-family="Times New Roman,serif" font-size="14.00">Tool Settings</text>
</g>
<!-- Tool_Settings_Factor&#45;&gt;FactorFit_Tool_Settings -->
<g id="edge16" class="edge"><title>Tool_Settings_Factor&#45;&gt;FactorFit_Tool_Settings</title>
<path fill="none" stroke="black" d="M338.549,-455.936C355.193,-451.739 371.93,-447.674 388,-444 416.003,-437.598 447.378,-431.47 473.364,-426.675"/>
<polygon fill="black" stroke="black" points="474.2,-430.08 483.407,-424.838 472.941,-423.194 474.2,-430.08"/>
</g>
<!-- Tool_Settings_Assets -->
<g id="node5" class="node"><title>Tool_Settings_Assets</title>
<polygon fill="none" stroke="green" points="1308,-834.5 1308,-949.5 1605,-949.5 1605,-834.5 1308,-834.5"/>
<text text-anchor="middle" x="1394.5" y="-888.3" font-family="Times New Roman,serif" font-size="14.00">Settings.Equity.SVJD.Asset</text>
<polyline fill="none" stroke="green" points="1481,-834.5 1481,-949.5 "/>
<text text-anchor="middle" x="1543" y="-934.3" font-family="Times New Roman,serif" font-size="14.00">Best_Views_SVJD</text>
<polyline fill="none" stroke="green" points="1481,-926.5 1605,-926.5 "/>
<text text-anchor="middle" x="1543" y="-911.3" font-family="Times New Roman,serif" font-size="14.00">NONE</text>
<polyline fill="none" stroke="green" points="1481,-903.5 1605,-903.5 "/>
<text text-anchor="middle" x="1543" y="-888.3" font-family="Times New Roman,serif" font-size="14.00">Real World</text>
<polyline fill="none" stroke="green" points="1481,-880.5 1605,-880.5 "/>
<text text-anchor="middle" x="1543" y="-865.3" font-family="Times New Roman,serif" font-size="14.00">E_ALL</text>
<polyline fill="none" stroke="green" points="1481,-857.5 1605,-857.5 "/>
<text text-anchor="middle" x="1543" y="-842.3" font-family="Times New Roman,serif" font-size="14.00">NONE</text>
</g>
<!-- SVJD_Tool_Settings -->
<g id="node27" class="node"><title>SVJD_Tool_Settings</title>
<polygon fill="none" stroke="blue" points="1821.5,-718 1729.5,-718 1729.5,-682 1821.5,-682 1821.5,-718"/>
<text text-anchor="middle" x="1775.5" y="-696.3" font-family="Times New Roman,serif" font-size="14.00">Tool Settings</text>
</g>
<!-- Tool_Settings_Assets&#45;&gt;SVJD_Tool_Settings -->
<g id="edge24" class="edge"><title>Tool_Settings_Assets&#45;&gt;SVJD_Tool_Settings</title>
<path fill="none" stroke="black" d="M1588.16,-834.459C1593.91,-831.362 1599.54,-828.204 1605,-825 1657.03,-794.451 1712.41,-751.348 1745.2,-724.568"/>
<polygon fill="black" stroke="black" points="1747.54,-727.183 1753.04,-718.129 1743.09,-721.775 1747.54,-727.183"/>
</g>
<!-- Tool_Settings_SVJD_Sorter -->
<g id="node6" class="node"><title>Tool_Settings_SVJD_Sorter</title>
<polygon fill="none" stroke="green" points="2543,-640.5 2543,-755.5 2901,-755.5 2901,-640.5 2543,-640.5"/>
<text text-anchor="middle" x="2660" y="-694.3" font-family="Times New Roman,serif" font-size="14.00">Settings.Equity.SVJD.AssetSorterTool</text>
<polyline fill="none" stroke="green" points="2777,-640.5 2777,-755.5 "/>
<text text-anchor="middle" x="2839" y="-740.3" font-family="Times New Roman,serif" font-size="14.00">Best_Views_SVJD</text>
<polyline fill="none" stroke="green" points="2777,-732.5 2901,-732.5 "/>
<text text-anchor="middle" x="2839" y="-717.3" font-family="Times New Roman,serif" font-size="14.00">NONE</text>
<polyline fill="none" stroke="green" points="2777,-709.5 2901,-709.5 "/>
<text text-anchor="middle" x="2839" y="-694.3" font-family="Times New Roman,serif" font-size="14.00">Real World</text>
<polyline fill="none" stroke="green" points="2777,-686.5 2901,-686.5 "/>
<text text-anchor="middle" x="2839" y="-671.3" font-family="Times New Roman,serif" font-size="14.00">#PerAsset#</text>
<polyline fill="none" stroke="green" points="2777,-663.5 2901,-663.5 "/>
<text text-anchor="middle" x="2839" y="-648.3" font-family="Times New Roman,serif" font-size="14.00">NONE</text>
</g>
<!-- Sorter_Settings -->
<g id="node33" class="node"><title>Sorter_Settings</title>
<polygon fill="none" stroke="blue" points="3112.5,-710 3009.5,-710 3009.5,-674 3112.5,-674 3112.5,-710"/>
<text text-anchor="middle" x="3061" y="-688.3" font-family="Times New Roman,serif" font-size="14.00">Sorter_Settings</text>
</g>
<!-- Tool_Settings_SVJD_Sorter&#45;&gt;Sorter_Settings -->
<g id="edge35" class="edge"><title>Tool_Settings_SVJD_Sorter&#45;&gt;Sorter_Settings</title>
<path fill="none" stroke="black" d="M2901.37,-694.824C2936.51,-694.199 2971.07,-693.583 2998.92,-693.087"/>
<polygon fill="black" stroke="black" points="2999.32,-696.581 3009.25,-692.903 2999.19,-689.582 2999.32,-696.581"/>
<text text-anchor="middle" x="2952" y="-698.8" font-family="Times New Roman,serif" font-size="14.00">~200 assets</text>
</g>
<!-- OneMonthVol_Combined -->
<g id="node7" class="node"><title>OneMonthVol_Combined</title>
<polygon fill="none" stroke="green" points="74.5,-305.5 74.5,-420.5 300.5,-420.5 300.5,-305.5 74.5,-305.5"/>
<text text-anchor="middle" x="146" y="-359.3" font-family="Times New Roman,serif" font-size="14.00">Targets.Equity.Vol.1m</text>
<polyline fill="none" stroke="green" points="217.5,-305.5 217.5,-420.5 "/>
<text text-anchor="middle" x="259" y="-405.3" font-family="Times New Roman,serif" font-size="14.00">Best_Views</text>
<polyline fill="none" stroke="green" points="217.5,-397.5 300.5,-397.5 "/>
<text text-anchor="middle" x="259" y="-382.3" font-family="Times New Roman,serif" font-size="14.00">NONE</text>
<polyline fill="none" stroke="green" points="217.5,-374.5 300.5,-374.5 "/>
<text text-anchor="middle" x="259" y="-359.3" font-family="Times New Roman,serif" font-size="14.00">Real World</text>
<polyline fill="none" stroke="green" points="217.5,-351.5 300.5,-351.5 "/>
<text text-anchor="middle" x="259" y="-336.3" font-family="Times New Roman,serif" font-size="14.00">E_ALL</text>
<polyline fill="none" stroke="green" points="217.5,-328.5 300.5,-328.5 "/>
<text text-anchor="middle" x="259" y="-313.3" font-family="Times New Roman,serif" font-size="14.00">NONE</text>
</g>
<!-- Factor_OneMonthVol_Combined -->
<g id="node18" class="node"><title>Factor_OneMonthVol_Combined</title>
<polygon fill="none" stroke="blue" points="627,-381 432,-381 432,-345 627,-345 627,-381"/>
<text text-anchor="middle" x="529.5" y="-359.3" font-family="Times New Roman,serif" font-size="14.00">1m Volatility Targets Combined</text>
</g>
<!-- OneMonthVol_Combined&#45;&gt;Factor_OneMonthVol_Combined -->
<g id="edge15" class="edge"><title>OneMonthVol_Combined&#45;&gt;Factor_OneMonthVol_Combined</title>
<path fill="none" stroke="black" d="M300.771,-363C339.657,-363 383.115,-363 421.56,-363"/>
<polygon fill="black" stroke="black" points="421.74,-366.5 431.74,-363 421.739,-359.5 421.74,-366.5"/>
</g>
<!-- Target_Skew_Combined -->
<g id="node8" class="node"><title>Target_Skew_Combined</title>
<polygon fill="none" stroke="green" points="1338,-700.5 1338,-815.5 1575,-815.5 1575,-700.5 1338,-700.5"/>
<text text-anchor="middle" x="1415" y="-754.3" font-family="Times New Roman,serif" font-size="14.00">Targets.Equity.Skew.1m</text>
<polyline fill="none" stroke="green" points="1492,-700.5 1492,-815.5 "/>
<text text-anchor="middle" x="1533.5" y="-800.3" font-family="Times New Roman,serif" font-size="14.00">Best_Views</text>
<polyline fill="none" stroke="green" points="1492,-792.5 1575,-792.5 "/>
<text text-anchor="middle" x="1533.5" y="-777.3" font-family="Times New Roman,serif" font-size="14.00">NONE</text>
<polyline fill="none" stroke="green" points="1492,-769.5 1575,-769.5 "/>
<text text-anchor="middle" x="1533.5" y="-754.3" font-family="Times New Roman,serif" font-size="14.00">Real World</text>
<polyline fill="none" stroke="green" points="1492,-746.5 1575,-746.5 "/>
<text text-anchor="middle" x="1533.5" y="-731.3" font-family="Times New Roman,serif" font-size="14.00">E_ALL</text>
<polyline fill="none" stroke="green" points="1492,-723.5 1575,-723.5 "/>
<text text-anchor="middle" x="1533.5" y="-708.3" font-family="Times New Roman,serif" font-size="14.00">NONE</text>
</g>
<!-- SVJD_Skew_Combined -->
<g id="node25" class="node"><title>SVJD_Skew_Combined</title>
<polygon fill="none" stroke="blue" points="1853,-664 1698,-664 1698,-628 1853,-628 1853,-664"/>
<text text-anchor="middle" x="1775.5" y="-642.3" font-family="Times New Roman,serif" font-size="14.00">Skew Targets Combined</text>
</g>
<!-- Target_Skew_Combined&#45;&gt;SVJD_Skew_Combined -->
<g id="edge22" class="edge"><title>Target_Skew_Combined&#45;&gt;SVJD_Skew_Combined</title>
<path fill="none" stroke="black" d="M1575.32,-706.145C1585.44,-701.19 1595.45,-696.105 1605,-691 1618.38,-683.848 1619.87,-678.523 1634,-673 1650.98,-666.361 1669.78,-661.31 1687.95,-657.481"/>
<polygon fill="black" stroke="black" points="1688.85,-660.871 1697.96,-655.477 1687.47,-654.007 1688.85,-660.871"/>
</g>
<!-- Target_Kurtosis_Combined -->
<g id="node9" class="node"><title>Target_Kurtosis_Combined</title>
<polygon fill="none" stroke="green" points="1330,-566.5 1330,-681.5 1583,-681.5 1583,-566.5 1330,-566.5"/>
<text text-anchor="middle" x="1415" y="-620.3" font-family="Times New Roman,serif" font-size="14.00">Targets.Equity.Kurtosis.1m</text>
<polyline fill="none" stroke="green" points="1500,-566.5 1500,-681.5 "/>
<text text-anchor="middle" x="1541.5" y="-666.3" font-family="Times New Roman,serif" font-size="14.00">Best_Views</text>
<polyline fill="none" stroke="green" points="1500,-658.5 1583,-658.5 "/>
<text text-anchor="middle" x="1541.5" y="-643.3" font-family="Times New Roman,serif" font-size="14.00">NONE</text>
<polyline fill="none" stroke="green" points="1500,-635.5 1583,-635.5 "/>
<text text-anchor="middle" x="1541.5" y="-620.3" font-family="Times New Roman,serif" font-size="14.00">Real World</text>
<polyline fill="none" stroke="green" points="1500,-612.5 1583,-612.5 "/>
<text text-anchor="middle" x="1541.5" y="-597.3" font-family="Times New Roman,serif" font-size="14.00">E_ALL</text>
<polyline fill="none" stroke="green" points="1500,-589.5 1583,-589.5 "/>
<text text-anchor="middle" x="1541.5" y="-574.3" font-family="Times New Roman,serif" font-size="14.00">NONE</text>
</g>
<!-- SVJD_Kurtosis_Combined -->
<g id="node26" class="node"><title>SVJD_Kurtosis_Combined</title>
<polygon fill="none" stroke="blue" points="1861.5,-610 1689.5,-610 1689.5,-574 1861.5,-574 1861.5,-610"/>
<text text-anchor="middle" x="1775.5" y="-588.3" font-family="Times New Roman,serif" font-size="14.00">Kurtosis Targets Combined</text>
</g>
<!-- Target_Kurtosis_Combined&#45;&gt;SVJD_Kurtosis_Combined -->
<g id="edge23" class="edge"><title>Target_Kurtosis_Combined&#45;&gt;SVJD_Kurtosis_Combined</title>
<path fill="none" stroke="black" d="M1583.24,-611.307C1615.23,-608.077 1649.09,-604.66 1679.28,-601.612"/>
<polygon fill="black" stroke="black" points="1679.77,-605.08 1689.37,-600.594 1679.07,-598.116 1679.77,-605.08"/>
</g>
<!-- Static_FactorVol -->
<g id="node10" class="node"><title>Static_FactorVol</title>
<polygon fill="none" stroke="green" points="46.5,-573.5 46.5,-688.5 328.5,-688.5 328.5,-573.5 46.5,-573.5"/>
<text text-anchor="middle" x="146" y="-627.3" font-family="Times New Roman,serif" font-size="14.00">Assets.EQ.Factors.Sigma.Const</text>
<polyline fill="none" stroke="green" points="245.5,-573.5 245.5,-688.5 "/>
<text text-anchor="middle" x="287" y="-673.3" font-family="Times New Roman,serif" font-size="14.00">Best_Views</text>
<polyline fill="none" stroke="green" points="245.5,-665.5 328.5,-665.5 "/>
<text text-anchor="middle" x="287" y="-650.3" font-family="Times New Roman,serif" font-size="14.00">NONE</text>
<polyline fill="none" stroke="green" points="245.5,-642.5 328.5,-642.5 "/>
<text text-anchor="middle" x="287" y="-627.3" font-family="Times New Roman,serif" font-size="14.00">Real World</text>
<polyline fill="none" stroke="green" points="245.5,-619.5 328.5,-619.5 "/>
<text text-anchor="middle" x="287" y="-604.3" font-family="Times New Roman,serif" font-size="14.00">E_ALL</text>
<polyline fill="none" stroke="green" points="245.5,-596.5 328.5,-596.5 "/>
<text text-anchor="middle" x="287" y="-581.3" font-family="Times New Roman,serif" font-size="14.00">NONE</text>
</g>
<!-- Factor_FactorVols -->
<g id="node20" class="node"><title>Factor_FactorVols</title>
<polygon fill="none" stroke="blue" points="606,-489 453,-489 453,-453 606,-453 606,-489"/>
<text text-anchor="middle" x="529.5" y="-467.3" font-family="Times New Roman,serif" font-size="14.00">Starting Factor Volatility</text>
</g>
<!-- Static_FactorVol&#45;&gt;Factor_FactorVols -->
<g id="edge17" class="edge"><title>Static_FactorVol&#45;&gt;Factor_FactorVols</title>
<path fill="none" stroke="black" d="M328.922,-593.715C343.087,-585.661 356.201,-575.879 367,-564 378.459,-551.396 365.509,-539.575 377,-527 394.45,-507.902 418.998,-495.297 443.261,-486.984"/>
<polygon fill="black" stroke="black" points="444.438,-490.282 452.892,-483.896 442.3,-483.617 444.438,-490.282"/>
</g>
<!-- SVJD_FactorVols -->
<g id="node28" class="node"><title>SVJD_FactorVols</title>
<polygon fill="none" stroke="blue" points="1852,-556 1699,-556 1699,-520 1852,-520 1852,-556"/>
<text text-anchor="middle" x="1775.5" y="-534.3" font-family="Times New Roman,serif" font-size="14.00">Starting Factor Volatility</text>
</g>
<!-- Static_FactorVol&#45;&gt;SVJD_FactorVols -->
<g id="edge25" class="edge"><title>Static_FactorVol&#45;&gt;SVJD_FactorVols</title>
<path fill="none" stroke="black" d="M328.685,-584.636C404.002,-561.341 489.258,-538 528.5,-538 528.5,-538 528.5,-538 1457.5,-538 1535.86,-538 1625.12,-538 1688.91,-538"/>
<polygon fill="black" stroke="black" points="1688.92,-541.5 1698.92,-538 1688.92,-534.5 1688.92,-541.5"/>
</g>
<!-- ConstVol_Factor_Calibration -->
<g id="node11" class="node"><title>ConstVol_Factor_Calibration</title>
<polygon fill="none" stroke="green" points="53.5,-150.5 53.5,-265.5 321.5,-265.5 321.5,-150.5 53.5,-150.5"/>
<text text-anchor="middle" x="107" y="-204.3" font-family="Times New Roman,serif" font-size="14.00">Assets.EQ.PEA</text>
<polyline fill="none" stroke="green" points="160.5,-150.5 160.5,-265.5 "/>
<text text-anchor="middle" x="241" y="-250.3" font-family="Times New Roman,serif" font-size="14.00">Best_Views_ConstantVol</text>
<polyline fill="none" stroke="green" points="160.5,-242.5 321.5,-242.5 "/>
<text text-anchor="middle" x="241" y="-227.3" font-family="Times New Roman,serif" font-size="14.00">NONE</text>
<polyline fill="none" stroke="green" points="160.5,-219.5 321.5,-219.5 "/>
<text text-anchor="middle" x="241" y="-204.3" font-family="Times New Roman,serif" font-size="14.00">Real World</text>
<polyline fill="none" stroke="green" points="160.5,-196.5 321.5,-196.5 "/>
<text text-anchor="middle" x="241" y="-181.3" font-family="Times New Roman,serif" font-size="14.00">E_ALL</text>
<polyline fill="none" stroke="green" points="160.5,-173.5 321.5,-173.5 "/>
<text text-anchor="middle" x="241" y="-158.3" font-family="Times New Roman,serif" font-size="14.00">NONE</text>
</g>
<!-- Factor_Calibrated_Factors -->
<g id="node22" class="node"><title>Factor_Calibrated_Factors</title>
<polygon fill="none" stroke="blue" points="604,-327 455,-327 455,-291 604,-291 604,-327"/>
<text text-anchor="middle" x="529.5" y="-305.3" font-family="Times New Roman,serif" font-size="14.00">Calibrated Factor Betas</text>
</g>
<!-- ConstVol_Factor_Calibration&#45;&gt;Factor_Calibrated_Factors -->
<g id="edge18" class="edge"><title>ConstVol_Factor_Calibration&#45;&gt;Factor_Calibrated_Factors</title>
<path fill="none" stroke="black" d="M321.64,-260.84C343.61,-268.558 366.297,-275.935 388,-282 406.148,-287.072 425.879,-291.509 444.661,-295.242"/>
<polygon fill="black" stroke="black" points="444.197,-298.717 454.681,-297.186 445.531,-291.846 444.197,-298.717"/>
</g>
<!-- SVJD_Calibrated_Factors -->
<g id="node29" class="node"><title>SVJD_Calibrated_Factors</title>
<polygon fill="none" stroke="blue" points="1850,-448 1701,-448 1701,-412 1850,-412 1850,-448"/>
<text text-anchor="middle" x="1775.5" y="-426.3" font-family="Times New Roman,serif" font-size="14.00">Calibrated Factor Betas</text>
</g>
<!-- ConstVol_Factor_Calibration&#45;&gt;SVJD_Calibrated_Factors -->
<g id="edge27" class="edge"><title>ConstVol_Factor_Calibration&#45;&gt;SVJD_Calibrated_Factors</title>
<path fill="none" stroke="black" d="M321.716,-208C384.456,-208 460.323,-208 528.5,-208 528.5,-208 528.5,-208 1457.5,-208 1545.77,-208 1552.48,-270.055 1605,-341 1623.1,-365.45 1610,-384.311 1634,-403 1650.25,-415.655 1670.72,-422.944 1690.96,-427.016"/>
<polygon fill="black" stroke="black" points="1690.41,-430.472 1700.87,-428.766 1691.63,-423.579 1690.41,-430.472"/>
</g>
<!-- Constant_Specific_Vols -->
<g id="node12" class="node"><title>Constant_Specific_Vols</title>
<polygon fill="none" stroke="green" points="16,-16.5 16,-131.5 359,-131.5 359,-16.5 16,-16.5"/>
<text text-anchor="middle" x="107" y="-70.3" font-family="Times New Roman,serif" font-size="14.00">Assets.EQ.PEA.Sigma.Const</text>
<polyline fill="none" stroke="green" points="198,-16.5 198,-131.5 "/>
<text text-anchor="middle" x="278.5" y="-116.3" font-family="Times New Roman,serif" font-size="14.00">Best_Views_ConstantVol</text>
<polyline fill="none" stroke="green" points="198,-108.5 359,-108.5 "/>
<text text-anchor="middle" x="278.5" y="-93.3" font-family="Times New Roman,serif" font-size="14.00">NONE</text>
<polyline fill="none" stroke="green" points="198,-85.5 359,-85.5 "/>
<text text-anchor="middle" x="278.5" y="-70.3" font-family="Times New Roman,serif" font-size="14.00">Real World</text>
<polyline fill="none" stroke="green" points="198,-62.5 359,-62.5 "/>
<text text-anchor="middle" x="278.5" y="-47.3" font-family="Times New Roman,serif" font-size="14.00">E_ALL</text>
<polyline fill="none" stroke="green" points="198,-39.5 359,-39.5 "/>
<text text-anchor="middle" x="278.5" y="-24.3" font-family="Times New Roman,serif" font-size="14.00">NONE</text>
</g>
<!-- Factor_Specific_Vols -->
<g id="node21" class="node"><title>Factor_Specific_Vols</title>
<polygon fill="none" stroke="blue" points="663,-273 396,-273 396,-237 663,-237 663,-273"/>
<text text-anchor="middle" x="529.5" y="-251.3" font-family="Times New Roman,serif" font-size="14.00">Combined Asset Constant Specific Volatility</text>
</g>
<!-- Constant_Specific_Vols&#45;&gt;Factor_Specific_Vols -->
<g id="edge19" class="edge"><title>Constant_Specific_Vols&#45;&gt;Factor_Specific_Vols</title>
<path fill="none" stroke="black" d="M348.524,-131.72C354.822,-134.729 361.003,-137.825 367,-141 416.005,-166.942 467.48,-205.545 498.788,-230.496"/>
<polygon fill="black" stroke="black" points="496.695,-233.304 506.683,-236.839 501.08,-227.847 496.695,-233.304"/>
</g>
<!-- SVJD_Specific_Vols -->
<g id="node30" class="node"><title>SVJD_Specific_Vols</title>
<polygon fill="none" stroke="blue" points="1909,-394 1642,-394 1642,-358 1909,-358 1909,-394"/>
<text text-anchor="middle" x="1775.5" y="-372.3" font-family="Times New Roman,serif" font-size="14.00">Combined Asset Constant Specific Volatility</text>
</g>
<!-- Constant_Specific_Vols&#45;&gt;SVJD_Specific_Vols -->
<g id="edge20" class="edge"><title>Constant_Specific_Vols&#45;&gt;SVJD_Specific_Vols</title>
<path fill="none" stroke="black" d="M359.061,-107.598C413.029,-115.665 473.06,-122 528.5,-122 528.5,-122 528.5,-122 1457.5,-122 1601.64,-122 1717.68,-283.905 1758.62,-349.189"/>
<polygon fill="black" stroke="black" points="1755.66,-351.061 1763.89,-357.733 1761.62,-347.385 1755.66,-351.061"/>
</g>
<!-- FactorFit_Model_Output -->
<g id="node13" class="node"><title>FactorFit_Model_Output</title>
<polygon fill="none" stroke="green" points="1327,-350.5 1327,-465.5 1586,-465.5 1586,-350.5 1327,-350.5"/>
<text text-anchor="middle" x="1415" y="-404.3" font-family="Times New Roman,serif" font-size="14.00">Assets.EQ.Factors.PartialFit</text>
<polyline fill="none" stroke="green" points="1503,-350.5 1503,-465.5 "/>
<text text-anchor="middle" x="1544.5" y="-450.3" font-family="Times New Roman,serif" font-size="14.00">Best_Views</text>
<polyline fill="none" stroke="green" points="1503,-442.5 1586,-442.5 "/>
<text text-anchor="middle" x="1544.5" y="-427.3" font-family="Times New Roman,serif" font-size="14.00">NONE</text>
<polyline fill="none" stroke="green" points="1503,-419.5 1586,-419.5 "/>
<text text-anchor="middle" x="1544.5" y="-404.3" font-family="Times New Roman,serif" font-size="14.00">Real World</text>
<polyline fill="none" stroke="green" points="1503,-396.5 1586,-396.5 "/>
<text text-anchor="middle" x="1544.5" y="-381.3" font-family="Times New Roman,serif" font-size="14.00">E_ALL</text>
<polyline fill="none" stroke="green" points="1503,-373.5 1586,-373.5 "/>
<text text-anchor="middle" x="1544.5" y="-358.3" font-family="Times New Roman,serif" font-size="14.00">NONE</text>
</g>
<!-- SVJD_Intermediate_FactorVol -->
<g id="node24" class="node"><title>SVJD_Intermediate_FactorVol</title>
<polygon fill="none" stroke="blue" points="1874,-502 1677,-502 1677,-466 1874,-466 1874,-502"/>
<text text-anchor="middle" x="1775.5" y="-480.3" font-family="Times New Roman,serif" font-size="14.00">Factor Volatility Intermediate Fit</text>
</g>
<!-- FactorFit_Model_Output&#45;&gt;SVJD_Intermediate_FactorVol -->
<g id="edge26" class="edge"><title>FactorFit_Model_Output&#45;&gt;SVJD_Intermediate_FactorVol</title>
<path fill="none" stroke="black" d="M1586.36,-445.071C1602.35,-449.289 1618.52,-453.37 1634,-457 1644.66,-459.5 1655.82,-461.94 1666.98,-464.266"/>
<polygon fill="black" stroke="black" points="1666.28,-467.695 1676.78,-466.279 1667.69,-460.838 1666.28,-467.695"/>
</g>
<!-- SVJD_Combined_Output -->
<g id="node14" class="node"><title>SVJD_Combined_Output</title>
<polygon fill="none" stroke="green" points="2606.5,-506.5 2606.5,-621.5 2837.5,-621.5 2837.5,-506.5 2606.5,-506.5"/>
<text text-anchor="middle" x="2660" y="-560.3" font-family="Times New Roman,serif" font-size="14.00">Assets.EQ.PEA</text>
<polyline fill="none" stroke="green" points="2713.5,-506.5 2713.5,-621.5 "/>
<text text-anchor="middle" x="2775.5" y="-606.3" font-family="Times New Roman,serif" font-size="14.00">Best_Views_SVJD</text>
<polyline fill="none" stroke="green" points="2713.5,-598.5 2837.5,-598.5 "/>
<text text-anchor="middle" x="2775.5" y="-583.3" font-family="Times New Roman,serif" font-size="14.00">NONE</text>
<polyline fill="none" stroke="green" points="2713.5,-575.5 2837.5,-575.5 "/>
<text text-anchor="middle" x="2775.5" y="-560.3" font-family="Times New Roman,serif" font-size="14.00">Real World</text>
<polyline fill="none" stroke="green" points="2713.5,-552.5 2837.5,-552.5 "/>
<text text-anchor="middle" x="2775.5" y="-537.3" font-family="Times New Roman,serif" font-size="14.00">E_ALL</text>
<polyline fill="none" stroke="green" points="2713.5,-529.5 2837.5,-529.5 "/>
<text text-anchor="middle" x="2775.5" y="-514.3" font-family="Times New Roman,serif" font-size="14.00">NONE</text>
</g>
<!-- SVJD_Combined -->
<g id="node34" class="node"><title>SVJD_Combined</title>
<polygon fill="none" stroke="blue" points="3119,-648 3003,-648 3003,-612 3119,-612 3119,-648"/>
<text text-anchor="middle" x="3061" y="-626.3" font-family="Times New Roman,serif" font-size="14.00">SVJD_Combined</text>
</g>
<!-- SVJD_Combined_Output&#45;&gt;SVJD_Combined -->
<g id="edge34" class="edge"><title>SVJD_Combined_Output&#45;&gt;SVJD_Combined</title>
<path fill="none" stroke="black" d="M2837.56,-586.437C2889.25,-596.56 2948.52,-608.166 2992.87,-616.852"/>
<polygon fill="black" stroke="black" points="2992.46,-620.339 3002.95,-618.827 2993.81,-613.47 2992.46,-620.339"/>
</g>
<!-- Volatility_Calibration -->
<g id="node15" class="node"><title>Volatility_Calibration</title>
<polygon fill="none" stroke="green" points="3795,-688.5 3795,-803.5 4101,-803.5 4101,-688.5 3795,-688.5"/>
<text text-anchor="middle" x="3886" y="-742.3" font-family="Times New Roman,serif" font-size="14.00">Assets.EQ.PEA.Sigma.SVJD</text>
<polyline fill="none" stroke="green" points="3977,-688.5 3977,-803.5 "/>
<text text-anchor="middle" x="4039" y="-788.3" font-family="Times New Roman,serif" font-size="14.00">Best_Views_SVJD</text>
<polyline fill="none" stroke="green" points="3977,-780.5 4101,-780.5 "/>
<text text-anchor="middle" x="4039" y="-765.3" font-family="Times New Roman,serif" font-size="14.00">NONE</text>
<polyline fill="none" stroke="green" points="3977,-757.5 4101,-757.5 "/>
<text text-anchor="middle" x="4039" y="-742.3" font-family="Times New Roman,serif" font-size="14.00">Real World</text>
<polyline fill="none" stroke="green" points="3977,-734.5 4101,-734.5 "/>
<text text-anchor="middle" x="4039" y="-719.3" font-family="Times New Roman,serif" font-size="14.00">#PerAsset#</text>
<polyline fill="none" stroke="green" points="3977,-711.5 4101,-711.5 "/>
<text text-anchor="middle" x="4039" y="-696.3" font-family="Times New Roman,serif" font-size="14.00">NONE</text>
</g>
<!-- Factor_Calibration -->
<g id="node16" class="node"><title>Factor_Calibration</title>
<polygon fill="none" stroke="green" points="3787,-420.5 3787,-535.5 4109,-535.5 4109,-420.5 3787,-420.5"/>
<text text-anchor="middle" x="3886" y="-474.3" font-family="Times New Roman,serif" font-size="14.00">Assets.EQ.Factors.Sigma.SVJD</text>
<polyline fill="none" stroke="green" points="3985,-420.5 3985,-535.5 "/>
<text text-anchor="middle" x="4047" y="-520.3" font-family="Times New Roman,serif" font-size="14.00">Best_Views_SVJD</text>
<polyline fill="none" stroke="green" points="3985,-512.5 4109,-512.5 "/>
<text text-anchor="middle" x="4047" y="-497.3" font-family="Times New Roman,serif" font-size="14.00">NONE</text>
<polyline fill="none" stroke="green" points="3985,-489.5 4109,-489.5 "/>
<text text-anchor="middle" x="4047" y="-474.3" font-family="Times New Roman,serif" font-size="14.00">Real World</text>
<polyline fill="none" stroke="green" points="3985,-466.5 4109,-466.5 "/>
<text text-anchor="middle" x="4047" y="-451.3" font-family="Times New Roman,serif" font-size="14.00">NONE</text>
<polyline fill="none" stroke="green" points="3985,-443.5 4109,-443.5 "/>
<text text-anchor="middle" x="4047" y="-428.3" font-family="Times New Roman,serif" font-size="14.00">NONE</text>
</g>
<!-- SVJD_Asset_Factor_Output -->
<g id="node17" class="node"><title>SVJD_Asset_Factor_Output</title>
<polygon fill="none" stroke="green" points="3832.5,-554.5 3832.5,-669.5 4063.5,-669.5 4063.5,-554.5 3832.5,-554.5"/>
<text text-anchor="middle" x="3886" y="-608.3" font-family="Times New Roman,serif" font-size="14.00">Assets.EQ.PEA</text>
<polyline fill="none" stroke="green" points="3939.5,-554.5 3939.5,-669.5 "/>
<text text-anchor="middle" x="4001.5" y="-654.3" font-family="Times New Roman,serif" font-size="14.00">Best_Views_SVJD</text>
<polyline fill="none" stroke="green" points="3939.5,-646.5 4063.5,-646.5 "/>
<text text-anchor="middle" x="4001.5" y="-631.3" font-family="Times New Roman,serif" font-size="14.00">NONE</text>
<polyline fill="none" stroke="green" points="3939.5,-623.5 4063.5,-623.5 "/>
<text text-anchor="middle" x="4001.5" y="-608.3" font-family="Times New Roman,serif" font-size="14.00">Real World</text>
<polyline fill="none" stroke="green" points="3939.5,-600.5 4063.5,-600.5 "/>
<text text-anchor="middle" x="4001.5" y="-585.3" font-family="Times New Roman,serif" font-size="14.00">#PerAsset#</text>
<polyline fill="none" stroke="green" points="3939.5,-577.5 4063.5,-577.5 "/>
<text text-anchor="middle" x="4001.5" y="-562.3" font-family="Times New Roman,serif" font-size="14.00">NONE</text>
</g>
<!-- Factor_OneMonthVol_Combined&#45;&gt;FactorFit_Tool -->
<g id="edge5" class="edge"><title>Factor_OneMonthVol_Combined&#45;&gt;FactorFit_Tool</title>
<path fill="none" stroke="black" d="M627.214,-365.579C646.888,-366.104 668.171,-366.671 689.661,-367.244"/>
<polygon fill="black" stroke="black" points="689.792,-370.749 699.881,-367.517 689.978,-363.751 689.792,-370.749"/>
</g>
<!-- FactorFit_Tool_Settings&#45;&gt;FactorFit_Tool -->
<g id="edge4" class="edge"><title>FactorFit_Tool_Settings&#45;&gt;FactorFit_Tool</title>
<path fill="none" stroke="black" d="M575.667,-410.978C605.745,-406.967 647.419,-401.411 689.887,-395.748"/>
<polygon fill="black" stroke="black" points="690.371,-399.215 699.82,-394.424 689.445,-392.276 690.371,-399.215"/>
</g>
<!-- Factor_FactorVols&#45;&gt;FactorFit_Tool -->
<g id="edge6" class="edge"><title>Factor_FactorVols&#45;&gt;FactorFit_Tool</title>
<path fill="none" stroke="black" d="M606.25,-457.422C624.921,-453.566 644.783,-449.03 663,-444 675.532,-440.54 688.405,-436.707 701.3,-432.663"/>
<polygon fill="black" stroke="black" points="702.688,-435.895 711.161,-429.533 700.57,-429.223 702.688,-435.895"/>
</g>
<!-- Factor_Specific_Vols&#45;&gt;FactorFit_Tool -->
<g id="edge8" class="edge"><title>Factor_Specific_Vols&#45;&gt;FactorFit_Tool</title>
<path fill="none" stroke="black" d="M630.569,-273.016C641.599,-275.704 652.595,-278.697 663,-282 688.049,-289.951 714.166,-299.98 739.04,-310.434"/>
<polygon fill="black" stroke="black" points="737.935,-313.768 748.507,-314.459 740.673,-307.326 737.935,-313.768"/>
</g>
<!-- Factor_Calibrated_Factors&#45;&gt;FactorFit_Tool -->
<g id="edge7" class="edge"><title>Factor_Calibrated_Factors&#45;&gt;FactorFit_Tool</title>
<path fill="none" stroke="black" d="M604.149,-322.748C629.701,-327.518 659.573,-333.094 689.849,-338.745"/>
<polygon fill="black" stroke="black" points="689.216,-342.187 699.688,-340.582 690.5,-335.306 689.216,-342.187"/>
</g>
<!-- Output_Intermediate_FactorVol&#45;&gt;FactorFit_Model_Output -->
<g id="edge21" class="edge"><title>Output_Intermediate_FactorVol&#45;&gt;FactorFit_Model_Output</title>
<path fill="none" stroke="black" d="M1271.27,-386.403C1286,-388.13 1301.44,-389.939 1316.84,-391.745"/>
<polygon fill="black" stroke="black" points="1316.61,-395.242 1326.95,-392.93 1317.42,-388.289 1316.61,-395.242"/>
</g>
<!-- SVJD_Intermediate_FactorVol&#45;&gt;SVJD_Asset_Tool -->
<g id="edge11" class="edge"><title>SVJD_Intermediate_FactorVol&#45;&gt;SVJD_Asset_Tool</title>
<path fill="none" stroke="black" d="M1874.16,-491.918C1893.63,-493.497 1914.62,-495.199 1935.76,-496.913"/>
<polygon fill="black" stroke="black" points="1935.57,-500.409 1945.82,-497.728 1936.13,-493.432 1935.57,-500.409"/>
</g>
<!-- SVJD_Skew_Combined&#45;&gt;SVJD_Asset_Tool -->
<g id="edge10" class="edge"><title>SVJD_Skew_Combined&#45;&gt;SVJD_Asset_Tool</title>
<path fill="none" stroke="black" d="M1853.23,-634.333C1871.78,-630.432 1891.34,-625.397 1909,-619 1942.16,-606.988 1976.55,-590.236 2007.29,-573.505"/>
<polygon fill="black" stroke="black" points="2009.21,-576.444 2016.28,-568.555 2005.83,-570.311 2009.21,-576.444"/>
</g>
<!-- SVJD_Tool_Settings&#45;&gt;SVJD_Asset_Tool -->
<g id="edge9" class="edge"><title>SVJD_Tool_Settings&#45;&gt;SVJD_Asset_Tool</title>
<path fill="none" stroke="black" d="M1821.75,-696.188C1848.17,-692.663 1881.6,-685.908 1909,-673 1959.64,-649.138 2008.67,-609.912 2045.57,-576.035"/>
<polygon fill="black" stroke="black" points="2048.31,-578.265 2053.25,-568.895 2043.55,-573.137 2048.31,-578.265"/>
</g>
<!-- SVJD_FactorVols&#45;&gt;SVJD_Asset_Tool -->
<g id="edge13" class="edge"><title>SVJD_FactorVols&#45;&gt;SVJD_Asset_Tool</title>
<path fill="none" stroke="black" d="M1852.06,-531.873C1877.23,-529.832 1906.4,-527.467 1935.87,-525.078"/>
<polygon fill="black" stroke="black" points="1936.19,-528.564 1945.87,-524.267 1935.62,-521.587 1936.19,-528.564"/>
</g>
<!-- SVJD_Calibrated_Factors&#45;&gt;SVJD_Asset_Tool -->
<g id="edge14" class="edge"><title>SVJD_Calibrated_Factors&#45;&gt;SVJD_Asset_Tool</title>
<path fill="none" stroke="black" d="M1850.27,-444.187C1869.44,-448.105 1890.04,-452.519 1909,-457 1917.82,-459.085 1926.85,-461.282 1935.95,-463.548"/>
<polygon fill="black" stroke="black" points="1935.3,-466.994 1945.85,-466.033 1937.01,-460.204 1935.3,-466.994"/>
</g>
<!-- SVJD_Specific_Vols&#45;&gt;SVJD_Asset_Tool -->
<g id="edge12" class="edge"><title>SVJD_Specific_Vols&#45;&gt;SVJD_Asset_Tool</title>
<path fill="none" stroke="black" d="M1880.04,-394.018C1889.93,-396.659 1899.73,-399.642 1909,-403 1942.16,-415.012 1976.55,-431.764 2007.29,-448.495"/>
<polygon fill="black" stroke="black" points="2005.83,-451.689 2016.28,-453.445 2009.21,-445.556 2005.83,-451.689"/>
</g>
<!-- Output_Combined_AssetSVJD&#45;&gt;SVJD_Combined_Output -->
<g id="edge28" class="edge"><title>Output_Combined_AssetSVJD&#45;&gt;SVJD_Combined_Output</title>
<path fill="none" stroke="black" d="M2506.27,-555.715C2534.72,-556.812 2566.28,-558.03 2596.25,-559.187"/>
<polygon fill="black" stroke="black" points="2596.22,-562.688 2606.35,-559.576 2596.49,-555.693 2596.22,-562.688"/>
</g>
<!-- Output_SVJD_FactorModel&#45;&gt;Factor_Calibration -->
<g id="edge29" class="edge"><title>Output_SVJD_FactorModel&#45;&gt;Factor_Calibration</title>
<path fill="none" stroke="black" d="M2497.07,-487.122C2559.39,-482.785 2645.31,-478 2721,-478 2721,-478 2721,-478 3610,-478 3664.14,-478 3723.17,-478 3776.49,-478"/>
<polygon fill="black" stroke="black" points="3776.72,-481.5 3786.72,-478 3776.72,-474.5 3776.72,-481.5"/>
</g>
<!-- Sorter_Settings&#45;&gt;SVJD_Asset_Sorter -->
<g id="edge30" class="edge"><title>Sorter_Settings&#45;&gt;SVJD_Asset_Sorter</title>
<path fill="none" stroke="black" d="M3112.71,-686.216C3122.85,-685.058 3134.05,-683.782 3145.83,-682.438"/>
<polygon fill="black" stroke="black" points="3146.32,-685.905 3155.86,-681.294 3145.53,-678.95 3146.32,-685.905"/>
</g>
<!-- SVJD_Combined&#45;&gt;SVJD_Asset_Sorter -->
<g id="edge31" class="edge"><title>SVJD_Combined&#45;&gt;SVJD_Asset_Sorter</title>
<path fill="none" stroke="black" d="M3119.07,-636.944C3127.39,-637.956 3136.3,-639.041 3145.58,-640.17"/>
<polygon fill="black" stroke="black" points="3145.44,-643.678 3155.79,-641.412 3146.29,-636.73 3145.44,-643.678"/>
</g>
<!-- Output_FactorLoadings&#45;&gt;SVJD_Asset_Factor_Output -->
<g id="edge36" class="edge"><title>Output_FactorLoadings&#45;&gt;SVJD_Asset_Factor_Output</title>
<path fill="none" stroke="black" d="M3685.21,-627.537C3725.51,-625.145 3776.21,-622.136 3822.23,-619.405"/>
<polygon fill="black" stroke="black" points="3822.51,-622.894 3832.28,-618.808 3822.09,-615.907 3822.51,-622.894"/>
<text text-anchor="middle" x="3736" y="-630.8" font-family="Times New Roman,serif" font-size="14.00">~200 assets</text>
</g>
<!-- Output_SVJD&#45;&gt;Volatility_Calibration -->
<g id="edge37" class="edge"><title>Output_SVJD&#45;&gt;Volatility_Calibration</title>
<path fill="none" stroke="black" d="M3657.21,-701.285C3690.87,-706.478 3738.25,-713.79 3784.98,-720.999"/>
<polygon fill="black" stroke="black" points="3784.51,-724.469 3794.93,-722.535 3785.58,-717.551 3784.51,-724.469"/>
<text text-anchor="middle" x="3736" y="-722.8" font-family="Times New Roman,serif" font-size="14.00">~200 assets</text>
</g>
</g>
</svg>
