<?xml version="1.0" encoding="UTF-8" standalone="no"?>
<!DOCTYPE svg PUBLIC "-//W3C//DTD SVG 1.1//EN"
 "http://www.w3.org/Graphics/SVG/1.1/DTD/svg11.dtd">
<!-- Generated by graphviz version 2.38.0 (20140413.2041)
 -->
<!-- Title: SimpleMTT Pages: 1 -->
<svg width="2196pt" height="715pt"
 viewBox="0.00 0.00 2196.00 715.00" xmlns="http://www.w3.org/2000/svg" xmlns:xlink="http://www.w3.org/1999/xlink">
<g id="graph0" class="graph" transform="scale(1 1) rotate(0) translate(4 711)">
<title>SimpleMTT</title>
<polygon fill="white" stroke="none" points="-4,4 -4,-711 2192,-711 2192,4 -4,4"/>
<g id="clust1" class="cluster"><title>cluster_models_in</title>
<polygon fill="none" stroke="black" points="535,-8 535,-699 918,-699 918,-8 535,-8"/>
<text text-anchor="middle" x="726.5" y="-683.8" font-family="Times New Roman,serif" font-size="14.00">Input Models (combined)</text>
</g>
<g id="clust2" class="cluster"><title>cluster_models_out</title>
<polygon fill="none" stroke="black" points="1821,-276 1821,-565 2180,-565 2180,-276 1821,-276"/>
<text text-anchor="middle" x="2000.5" y="-549.8" font-family="Times New Roman,serif" font-size="14.00">Output Models (per economy)</text>
</g>
<g id="clust3" class="cluster"><title>cluster_models_summary_out</title>
<polygon fill="none" stroke="black" points="1858.5,-113 1858.5,-268 2142.5,-268 2142.5,-113 1858.5,-113"/>
<text text-anchor="middle" x="2000.5" y="-252.8" font-family="Times New Roman,serif" font-size="14.00">Output Models (combined)</text>
</g>
<g id="clust4" class="cluster"><title>cluster_anchored_in</title>
<polygon fill="none" stroke="black" points="939,-208 939,-499 1137,-499 1137,-208 939,-208"/>
<text text-anchor="middle" x="1038" y="-483.8" font-family="Times New Roman,serif" font-size="14.00">Input Anchored Models</text>
</g>
<g id="clust6" class="cluster"><title>cluster_anchored_Out</title>
<polygon fill="none" stroke="black" points="1561,-204 1561,-279 1722,-279 1722,-204 1561,-204"/>
<text text-anchor="middle" x="1641.5" y="-263.8" font-family="Times New Roman,serif" font-size="14.00">Output Anchored Models</text>
</g>
<g id="clust7" class="cluster"><title>cluster_RWTS_Sorting</title>
<polygon fill="none" stroke="black" points="8,-431 8,-560 514,-560 514,-431 8,-431"/>
<text text-anchor="middle" x="261" y="-544.8" font-family="Times New Roman,serif" font-size="14.00">RWTS results processing</text>
</g>
<g id="clust5" class="cluster"><title>cluster_unanchored_out</title>
<polygon fill="none" stroke="black" points="1547,-316 1547,-445 1735,-445 1735,-316 1547,-316"/>
<text text-anchor="middle" x="1641" y="-429.8" font-family="Times New Roman,serif" font-size="14.00">un&#45;anchored models, per asset</text>
</g>
<!-- ConstVol_Equity_Tool -->
<g id="node1" class="node"><title>ConstVol_Equity_Tool</title>
<polygon fill="none" stroke="blue" points="1166,-284.5 1166,-399.5 1518,-399.5 1518,-284.5 1166,-284.5"/>
<text text-anchor="middle" x="1261.5" y="-338.3" font-family="Times New Roman,serif" font-size="14.00">Constant Equity Volatility Tool</text>
<polyline fill="none" stroke="blue" points="1357,-284.5 1357,-399.5 "/>
<text text-anchor="middle" x="1437.5" y="-384.3" font-family="Times New Roman,serif" font-size="14.00">Best_Views_ConstantVol</text>
<polyline fill="none" stroke="blue" points="1357,-376.5 1518,-376.5 "/>
<text text-anchor="middle" x="1437.5" y="-361.3" font-family="Times New Roman,serif" font-size="14.00">NONE</text>
<polyline fill="none" stroke="blue" points="1357,-353.5 1518,-353.5 "/>
<text text-anchor="middle" x="1437.5" y="-338.3" font-family="Times New Roman,serif" font-size="14.00">Real World</text>
<polyline fill="none" stroke="blue" points="1357,-330.5 1518,-330.5 "/>
<text text-anchor="middle" x="1437.5" y="-315.3" font-family="Times New Roman,serif" font-size="14.00">E_ALL</text>
<polyline fill="none" stroke="blue" points="1357,-307.5 1518,-307.5 "/>
<text text-anchor="middle" x="1437.5" y="-292.3" font-family="Times New Roman,serif" font-size="14.00">NONE</text>
</g>
<!-- Output_FactorLoadings -->
<g id="node15" class="node"><title>Output_FactorLoadings</title>
<polygon fill="none" stroke="orange" points="1717,-414 1565,-414 1565,-378 1717,-378 1717,-414"/>
<text text-anchor="middle" x="1641" y="-392.3" font-family="Times New Roman,serif" font-size="14.00">Output_FactorLoadings</text>
</g>
<!-- ConstVol_Equity_Tool&#45;&gt;Output_FactorLoadings -->
<g id="edge6" class="edge"><title>ConstVol_Equity_Tool&#45;&gt;Output_FactorLoadings</title>
<path fill="none" stroke="black" d="M1518.34,-373.88C1530.87,-376.159 1543.14,-378.389 1554.77,-380.503"/>
<polygon fill="black" stroke="black" points="1554.35,-383.985 1564.82,-382.33 1555.6,-377.098 1554.35,-383.985"/>
</g>
<!-- Output_ConstantVol -->
<g id="node16" class="node"><title>Output_ConstantVol</title>
<polygon fill="none" stroke="orange" points="1708,-360 1574,-360 1574,-324 1708,-324 1708,-360"/>
<text text-anchor="middle" x="1641" y="-338.3" font-family="Times New Roman,serif" font-size="14.00">Output_ConstantVol</text>
</g>
<!-- ConstVol_Equity_Tool&#45;&gt;Output_ConstantVol -->
<g id="edge7" class="edge"><title>ConstVol_Equity_Tool&#45;&gt;Output_ConstantVol</title>
<path fill="none" stroke="black" d="M1518.34,-342C1534.11,-342 1549.46,-342 1563.64,-342"/>
<polygon fill="black" stroke="black" points="1563.76,-345.5 1573.76,-342 1563.76,-338.5 1563.76,-345.5"/>
</g>
<!-- Output_Combined -->
<g id="node17" class="node"><title>Output_Combined</title>
<polygon fill="none" stroke="blue" points="1702,-248 1580,-248 1580,-212 1702,-212 1702,-248"/>
<text text-anchor="middle" x="1641" y="-226.3" font-family="Times New Roman,serif" font-size="14.00">Output_Combined</text>
</g>
<!-- ConstVol_Equity_Tool&#45;&gt;Output_Combined -->
<g id="edge8" class="edge"><title>ConstVol_Equity_Tool&#45;&gt;Output_Combined</title>
<path fill="none" stroke="black" d="M1495.85,-284.36C1526.72,-272.719 1557.33,-261.174 1582.36,-251.737"/>
<polygon fill="black" stroke="black" points="1583.89,-254.898 1592.02,-248.095 1581.42,-248.349 1583.89,-254.898"/>
</g>
<!-- Tool_Settings -->
<g id="node2" class="node"><title>Tool_Settings</title>
<polygon fill="none" stroke="green" points="558.5,-552.5 558.5,-667.5 894.5,-667.5 894.5,-552.5 558.5,-552.5"/>
<text text-anchor="middle" x="646" y="-606.3" font-family="Times New Roman,serif" font-size="14.00">Settings.Equity.ConstantVol</text>
<polyline fill="none" stroke="green" points="733.5,-552.5 733.5,-667.5 "/>
<text text-anchor="middle" x="814" y="-652.3" font-family="Times New Roman,serif" font-size="14.00">Best_Views_ConstantVol</text>
<polyline fill="none" stroke="green" points="733.5,-644.5 894.5,-644.5 "/>
<text text-anchor="middle" x="814" y="-629.3" font-family="Times New Roman,serif" font-size="14.00">NONE</text>
<polyline fill="none" stroke="green" points="733.5,-621.5 894.5,-621.5 "/>
<text text-anchor="middle" x="814" y="-606.3" font-family="Times New Roman,serif" font-size="14.00">Real World</text>
<polyline fill="none" stroke="green" points="733.5,-598.5 894.5,-598.5 "/>
<text text-anchor="middle" x="814" y="-583.3" font-family="Times New Roman,serif" font-size="14.00">E_ALL</text>
<polyline fill="none" stroke="green" points="733.5,-575.5 894.5,-575.5 "/>
<text text-anchor="middle" x="814" y="-560.3" font-family="Times New Roman,serif" font-size="14.00">NONE</text>
</g>
<!-- Input_Tool_Settings -->
<g id="node12" class="node"><title>Input_Tool_Settings</title>
<polygon fill="none" stroke="blue" points="1104,-468 972,-468 972,-432 1104,-432 1104,-468"/>
<text text-anchor="middle" x="1038" y="-446.3" font-family="Times New Roman,serif" font-size="14.00">Input_Tool_Settings</text>
</g>
<!-- Tool_Settings&#45;&gt;Input_Tool_Settings -->
<g id="edge9" class="edge"><title>Tool_Settings&#45;&gt;Input_Tool_Settings</title>
<path fill="none" stroke="black" d="M894.615,-554.84C902.628,-551.072 910.465,-547.124 918,-543 952.36,-524.194 987.141,-495.668 1010.15,-475.169"/>
<polygon fill="black" stroke="black" points="1012.7,-477.582 1017.78,-468.283 1008.01,-472.386 1012.7,-477.582"/>
</g>
<!-- XLS_ConstVol_RWTS_Sorter -->
<g id="node20" class="node"><title>XLS_ConstVol_RWTS_Sorter</title>
<polygon fill="none" stroke="green" points="506,-494 312,-494 312,-458 506,-458 506,-494"/>
<text text-anchor="middle" x="409" y="-472.3" font-family="Times New Roman,serif" font-size="14.00">XLS_ConstVol_RWTS_Sorter</text>
</g>
<!-- Tool_Settings&#45;&gt;XLS_ConstVol_RWTS_Sorter -->
<g id="edge21" class="edge"><title>Tool_Settings&#45;&gt;XLS_ConstVol_RWTS_Sorter</title>
<path fill="none" stroke="black" d="M558.428,-552.915C550.464,-549.67 542.619,-546.358 535,-543 505.531,-530.013 473.546,-512.807 449.308,-499.084"/>
<polygon fill="black" stroke="black" points="450.839,-495.928 440.419,-494.011 447.369,-502.008 450.839,-495.928"/>
</g>
<!-- UncVol_Combined -->
<g id="node3" class="node"><title>UncVol_Combined</title>
<polygon fill="none" stroke="green" points="564,-418.5 564,-533.5 889,-533.5 889,-418.5 564,-418.5"/>
<text text-anchor="middle" x="646" y="-472.3" font-family="Times New Roman,serif" font-size="14.00">Targets.Vol.Unconditional</text>
<polyline fill="none" stroke="green" points="728,-418.5 728,-533.5 "/>
<text text-anchor="middle" x="808.5" y="-518.3" font-family="Times New Roman,serif" font-size="14.00">Best_Views_ConstantVol</text>
<polyline fill="none" stroke="green" points="728,-510.5 889,-510.5 "/>
<text text-anchor="middle" x="808.5" y="-495.3" font-family="Times New Roman,serif" font-size="14.00">NONE</text>
<polyline fill="none" stroke="green" points="728,-487.5 889,-487.5 "/>
<text text-anchor="middle" x="808.5" y="-472.3" font-family="Times New Roman,serif" font-size="14.00">Real World</text>
<polyline fill="none" stroke="green" points="728,-464.5 889,-464.5 "/>
<text text-anchor="middle" x="808.5" y="-449.3" font-family="Times New Roman,serif" font-size="14.00">E_ALL</text>
<polyline fill="none" stroke="green" points="728,-441.5 889,-441.5 "/>
<text text-anchor="middle" x="808.5" y="-426.3" font-family="Times New Roman,serif" font-size="14.00">NONE</text>
</g>
<!-- Input_UncVol_Combined -->
<g id="node10" class="node"><title>Input_UncVol_Combined</title>
<polygon fill="none" stroke="blue" points="1119.5,-414 956.5,-414 956.5,-378 1119.5,-378 1119.5,-414"/>
<text text-anchor="middle" x="1038" y="-392.3" font-family="Times New Roman,serif" font-size="14.00">Input_UncVol_Combined</text>
</g>
<!-- UncVol_Combined&#45;&gt;Input_UncVol_Combined -->
<g id="edge10" class="edge"><title>UncVol_Combined&#45;&gt;Input_UncVol_Combined</title>
<path fill="none" stroke="black" d="M889.049,-434.243C912.836,-428.094 936.41,-422.001 957.514,-416.546"/>
<polygon fill="black" stroke="black" points="958.54,-419.895 967.346,-414.004 956.789,-413.118 958.54,-419.895"/>
</g>
<!-- Correlation_Combined -->
<g id="node4" class="node"><title>Correlation_Combined</title>
<polygon fill="none" stroke="green" points="543,-284.5 543,-399.5 910,-399.5 910,-284.5 543,-284.5"/>
<text text-anchor="middle" x="646" y="-338.3" font-family="Times New Roman,serif" font-size="14.00">Targets.Correlation.Unconditional</text>
<polyline fill="none" stroke="green" points="749,-284.5 749,-399.5 "/>
<text text-anchor="middle" x="829.5" y="-384.3" font-family="Times New Roman,serif" font-size="14.00">Best_Views_ConstantVol</text>
<polyline fill="none" stroke="green" points="749,-376.5 910,-376.5 "/>
<text text-anchor="middle" x="829.5" y="-361.3" font-family="Times New Roman,serif" font-size="14.00">NONE</text>
<polyline fill="none" stroke="green" points="749,-353.5 910,-353.5 "/>
<text text-anchor="middle" x="829.5" y="-338.3" font-family="Times New Roman,serif" font-size="14.00">Real World</text>
<polyline fill="none" stroke="green" points="749,-330.5 910,-330.5 "/>
<text text-anchor="middle" x="829.5" y="-315.3" font-family="Times New Roman,serif" font-size="14.00">E_ALL</text>
<polyline fill="none" stroke="green" points="749,-307.5 910,-307.5 "/>
<text text-anchor="middle" x="829.5" y="-292.3" font-family="Times New Roman,serif" font-size="14.00">NONE</text>
</g>
<!-- Input_Correlation_Combined -->
<g id="node11" class="node"><title>Input_Correlation_Combined</title>
<polygon fill="none" stroke="blue" points="1129,-360 947,-360 947,-324 1129,-324 1129,-360"/>
<text text-anchor="middle" x="1038" y="-338.3" font-family="Times New Roman,serif" font-size="14.00">Input_Correlation_Combined</text>
</g>
<!-- Correlation_Combined&#45;&gt;Input_Correlation_Combined -->
<g id="edge11" class="edge"><title>Correlation_Combined&#45;&gt;Input_Correlation_Combined</title>
<path fill="none" stroke="black" d="M910.221,-342C919.252,-342 928.151,-342 936.79,-342"/>
<polygon fill="black" stroke="black" points="936.804,-345.5 946.804,-342 936.804,-338.5 936.804,-345.5"/>
</g>
<!-- Static_FactorVol -->
<g id="node5" class="node"><title>Static_FactorVol</title>
<polygon fill="none" stroke="green" points="585.5,-150.5 585.5,-265.5 867.5,-265.5 867.5,-150.5 585.5,-150.5"/>
<text text-anchor="middle" x="685" y="-204.3" font-family="Times New Roman,serif" font-size="14.00">Assets.EQ.Factors.Sigma.Const</text>
<polyline fill="none" stroke="green" points="784.5,-150.5 784.5,-265.5 "/>
<text text-anchor="middle" x="826" y="-250.3" font-family="Times New Roman,serif" font-size="14.00">Best_Views</text>
<polyline fill="none" stroke="green" points="784.5,-242.5 867.5,-242.5 "/>
<text text-anchor="middle" x="826" y="-227.3" font-family="Times New Roman,serif" font-size="14.00">NONE</text>
<polyline fill="none" stroke="green" points="784.5,-219.5 867.5,-219.5 "/>
<text text-anchor="middle" x="826" y="-204.3" font-family="Times New Roman,serif" font-size="14.00">Real World</text>
<polyline fill="none" stroke="green" points="784.5,-196.5 867.5,-196.5 "/>
<text text-anchor="middle" x="826" y="-181.3" font-family="Times New Roman,serif" font-size="14.00">E_ALL</text>
<polyline fill="none" stroke="green" points="784.5,-173.5 867.5,-173.5 "/>
<text text-anchor="middle" x="826" y="-158.3" font-family="Times New Roman,serif" font-size="14.00">NONE</text>
</g>
<!-- Input_FactorVols -->
<g id="node13" class="node"><title>Input_FactorVols</title>
<polygon fill="none" stroke="blue" points="1096,-306 980,-306 980,-270 1096,-270 1096,-306"/>
<text text-anchor="middle" x="1038" y="-284.3" font-family="Times New Roman,serif" font-size="14.00">Input_FactorVols</text>
</g>
<!-- Static_FactorVol&#45;&gt;Input_FactorVols -->
<g id="edge12" class="edge"><title>Static_FactorVol&#45;&gt;Input_FactorVols</title>
<path fill="none" stroke="black" d="M867.761,-244.255C903.254,-253.429 939.773,-262.869 969.761,-270.62"/>
<polygon fill="black" stroke="black" points="969.111,-274.067 979.669,-273.181 970.863,-267.29 969.111,-274.067"/>
</g>
<!-- Calibrated_Factors -->
<g id="node6" class="node"><title>Calibrated_Factors</title>
<polygon fill="none" stroke="green" points="606,-16.5 606,-131.5 847,-131.5 847,-16.5 606,-16.5"/>
<text text-anchor="middle" x="659.5" y="-70.3" font-family="Times New Roman,serif" font-size="14.00">Assets.EQ.PEA</text>
<polyline fill="none" stroke="green" points="713,-16.5 713,-131.5 "/>
<text text-anchor="middle" x="780" y="-116.3" font-family="Times New Roman,serif" font-size="14.00">#PreviousFitStream#</text>
<polyline fill="none" stroke="green" points="713,-108.5 847,-108.5 "/>
<text text-anchor="middle" x="780" y="-93.3" font-family="Times New Roman,serif" font-size="14.00">NONE</text>
<polyline fill="none" stroke="green" points="713,-85.5 847,-85.5 "/>
<text text-anchor="middle" x="780" y="-70.3" font-family="Times New Roman,serif" font-size="14.00">Real World</text>
<polyline fill="none" stroke="green" points="713,-62.5 847,-62.5 "/>
<text text-anchor="middle" x="780" y="-47.3" font-family="Times New Roman,serif" font-size="14.00">E_ALL</text>
<polyline fill="none" stroke="green" points="713,-39.5 847,-39.5 "/>
<text text-anchor="middle" x="780" y="-24.3" font-family="Times New Roman,serif" font-size="14.00">NONE</text>
</g>
<!-- Input_Calibrated_Factors -->
<g id="node14" class="node"><title>Input_Calibrated_Factors</title>
<polygon fill="none" stroke="blue" points="1118.5,-252 957.5,-252 957.5,-216 1118.5,-216 1118.5,-252"/>
<text text-anchor="middle" x="1038" y="-230.3" font-family="Times New Roman,serif" font-size="14.00">Input_Calibrated_Factors</text>
</g>
<!-- Calibrated_Factors&#45;&gt;Input_Calibrated_Factors -->
<g id="edge13" class="edge"><title>Calibrated_Factors&#45;&gt;Input_Calibrated_Factors</title>
<path fill="none" stroke="black" stroke-dasharray="1,5" d="M847.204,-109.393C871.273,-118.353 895.934,-128.923 918,-141 952.36,-159.806 987.141,-188.332 1010.15,-208.831"/>
<polygon fill="black" stroke="black" points="1008.01,-211.614 1017.78,-215.717 1012.7,-206.418 1008.01,-211.614"/>
</g>
<!-- Factor_Calibration -->
<g id="node7" class="node"><title>Factor_Calibration</title>
<polygon fill="none" stroke="green" points="1866.5,-418.5 1866.5,-533.5 2134.5,-533.5 2134.5,-418.5 1866.5,-418.5"/>
<text text-anchor="middle" x="1920" y="-472.3" font-family="Times New Roman,serif" font-size="14.00">Assets.EQ.PEA</text>
<polyline fill="none" stroke="green" points="1973.5,-418.5 1973.5,-533.5 "/>
<text text-anchor="middle" x="2054" y="-518.3" font-family="Times New Roman,serif" font-size="14.00">Best_Views_ConstantVol</text>
<polyline fill="none" stroke="green" points="1973.5,-510.5 2134.5,-510.5 "/>
<text text-anchor="middle" x="2054" y="-495.3" font-family="Times New Roman,serif" font-size="14.00">NONE</text>
<polyline fill="none" stroke="green" points="1973.5,-487.5 2134.5,-487.5 "/>
<text text-anchor="middle" x="2054" y="-472.3" font-family="Times New Roman,serif" font-size="14.00">Real World</text>
<polyline fill="none" stroke="green" points="1973.5,-464.5 2134.5,-464.5 "/>
<text text-anchor="middle" x="2054" y="-449.3" font-family="Times New Roman,serif" font-size="14.00">#PerAsset#</text>
<polyline fill="none" stroke="green" points="1973.5,-441.5 2134.5,-441.5 "/>
<text text-anchor="middle" x="2054" y="-426.3" font-family="Times New Roman,serif" font-size="14.00">NONE</text>
</g>
<!-- Volatility_Calibration -->
<g id="node8" class="node"><title>Volatility_Calibration</title>
<polygon fill="none" stroke="green" points="1829,-284.5 1829,-399.5 2172,-399.5 2172,-284.5 1829,-284.5"/>
<text text-anchor="middle" x="1920" y="-338.3" font-family="Times New Roman,serif" font-size="14.00">Assets.EQ.PEA.Sigma.Const</text>
<polyline fill="none" stroke="green" points="2011,-284.5 2011,-399.5 "/>
<text text-anchor="middle" x="2091.5" y="-384.3" font-family="Times New Roman,serif" font-size="14.00">Best_Views_ConstantVol</text>
<polyline fill="none" stroke="green" points="2011,-376.5 2172,-376.5 "/>
<text text-anchor="middle" x="2091.5" y="-361.3" font-family="Times New Roman,serif" font-size="14.00">NONE</text>
<polyline fill="none" stroke="green" points="2011,-353.5 2172,-353.5 "/>
<text text-anchor="middle" x="2091.5" y="-338.3" font-family="Times New Roman,serif" font-size="14.00">Real World</text>
<polyline fill="none" stroke="green" points="2011,-330.5 2172,-330.5 "/>
<text text-anchor="middle" x="2091.5" y="-315.3" font-family="Times New Roman,serif" font-size="14.00">#PerAsset#</text>
<polyline fill="none" stroke="green" points="2011,-307.5 2172,-307.5 "/>
<text text-anchor="middle" x="2091.5" y="-292.3" font-family="Times New Roman,serif" font-size="14.00">NONE</text>
</g>
<!-- Combined_Model_Output -->
<g id="node9" class="node"><title>Combined_Model_Output</title>
<polygon fill="none" stroke="green" points="1866.5,-121.5 1866.5,-236.5 2134.5,-236.5 2134.5,-121.5 1866.5,-121.5"/>
<text text-anchor="middle" x="1920" y="-175.3" font-family="Times New Roman,serif" font-size="14.00">Assets.EQ.PEA</text>
<polyline fill="none" stroke="green" points="1973.5,-121.5 1973.5,-236.5 "/>
<text text-anchor="middle" x="2054" y="-221.3" font-family="Times New Roman,serif" font-size="14.00">Best_Views_ConstantVol</text>
<polyline fill="none" stroke="green" points="1973.5,-213.5 2134.5,-213.5 "/>
<text text-anchor="middle" x="2054" y="-198.3" font-family="Times New Roman,serif" font-size="14.00">NONE</text>
<polyline fill="none" stroke="green" points="1973.5,-190.5 2134.5,-190.5 "/>
<text text-anchor="middle" x="2054" y="-175.3" font-family="Times New Roman,serif" font-size="14.00">Real World</text>
<polyline fill="none" stroke="green" points="1973.5,-167.5 2134.5,-167.5 "/>
<text text-anchor="middle" x="2054" y="-152.3" font-family="Times New Roman,serif" font-size="14.00">E_ALL</text>
<polyline fill="none" stroke="green" points="1973.5,-144.5 2134.5,-144.5 "/>
<text text-anchor="middle" x="2054" y="-129.3" font-family="Times New Roman,serif" font-size="14.00">NONE</text>
</g>
<!-- Input_UncVol_Combined&#45;&gt;ConstVol_Equity_Tool -->
<g id="edge2" class="edge"><title>Input_UncVol_Combined&#45;&gt;ConstVol_Equity_Tool</title>
<path fill="none" stroke="black" d="M1119.53,-381.6C1131.05,-379.541 1143.26,-377.357 1155.81,-375.113"/>
<polygon fill="black" stroke="black" points="1156.71,-378.507 1165.94,-373.302 1155.48,-371.617 1156.71,-378.507"/>
</g>
<!-- Input_Correlation_Combined&#45;&gt;ConstVol_Equity_Tool -->
<g id="edge3" class="edge"><title>Input_Correlation_Combined&#45;&gt;ConstVol_Equity_Tool</title>
<path fill="none" stroke="black" d="M1129.2,-342C1137.72,-342 1146.56,-342 1155.57,-342"/>
<polygon fill="black" stroke="black" points="1155.8,-345.5 1165.8,-342 1155.8,-338.5 1155.8,-345.5"/>
</g>
<!-- Input_Tool_Settings&#45;&gt;ConstVol_Equity_Tool -->
<g id="edge1" class="edge"><title>Input_Tool_Settings&#45;&gt;ConstVol_Equity_Tool</title>
<path fill="none" stroke="black" d="M1104.14,-433.125C1115.17,-429.963 1126.46,-426.533 1137,-423 1155.08,-416.94 1173.89,-410.153 1192.45,-403.156"/>
<polygon fill="black" stroke="black" points="1193.72,-406.416 1201.83,-399.594 1191.24,-399.872 1193.72,-406.416"/>
</g>
<!-- Input_FactorVols&#45;&gt;ConstVol_Equity_Tool -->
<g id="edge4" class="edge"><title>Input_FactorVols&#45;&gt;ConstVol_Equity_Tool</title>
<path fill="none" stroke="black" d="M1096.16,-298.22C1113.88,-301.389 1134.46,-305.068 1156.01,-308.922"/>
<polygon fill="black" stroke="black" points="1155.51,-312.389 1165.97,-310.704 1156.75,-305.498 1155.51,-312.389"/>
</g>
<!-- Input_Calibrated_Factors&#45;&gt;ConstVol_Equity_Tool -->
<g id="edge5" class="edge"><title>Input_Calibrated_Factors&#45;&gt;ConstVol_Equity_Tool</title>
<path fill="none" stroke="black" stroke-dasharray="1,5" d="M1108.09,-252.015C1117.85,-254.855 1127.71,-257.887 1137,-261 1155.08,-267.06 1173.89,-273.847 1192.45,-280.844"/>
<polygon fill="black" stroke="black" points="1191.24,-284.128 1201.83,-284.406 1193.72,-277.584 1191.24,-284.128"/>
</g>
<!-- Output_FactorLoadings&#45;&gt;Factor_Calibration -->
<g id="edge14" class="edge"><title>Output_FactorLoadings&#45;&gt;Factor_Calibration</title>
<path fill="none" stroke="black" d="M1717.38,-412.868C1757.82,-421.917 1809.01,-433.373 1856.65,-444.035"/>
<polygon fill="black" stroke="black" points="1855.92,-447.458 1866.45,-446.226 1857.45,-440.626 1855.92,-447.458"/>
<text text-anchor="middle" x="1778" y="-436.8" font-family="Times New Roman,serif" font-size="14.00">~200 assets</text>
</g>
<!-- Output_ConstantVol&#45;&gt;Volatility_Calibration -->
<g id="edge15" class="edge"><title>Output_ConstantVol&#45;&gt;Volatility_Calibration</title>
<path fill="none" stroke="black" d="M1708.41,-342C1739.96,-342 1779.36,-342 1818.89,-342"/>
<polygon fill="black" stroke="black" points="1818.94,-345.5 1828.94,-342 1818.94,-338.5 1818.94,-345.5"/>
<text text-anchor="middle" x="1778" y="-345.8" font-family="Times New Roman,serif" font-size="14.00">~200 assets</text>
</g>
<!-- Output_Combined&#45;&gt;Combined_Model_Output -->
<g id="edge20" class="edge"><title>Output_Combined&#45;&gt;Combined_Model_Output</title>
<path fill="none" stroke="black" d="M1702.24,-221.406C1744.39,-215.393 1802.54,-207.098 1856.24,-199.437"/>
<polygon fill="black" stroke="black" points="1856.8,-202.892 1866.21,-198.015 1855.82,-195.962 1856.8,-202.892"/>
</g>
<!-- RWTS_Per_Economy_Results -->
<g id="node18" class="node"><title>RWTS_Per_Economy_Results</title>
<polygon fill="none" stroke="orange" points="210,-529 16,-529 16,-493 210,-493 210,-529"/>
<text text-anchor="middle" x="113" y="-507.3" font-family="Times New Roman,serif" font-size="14.00">RWTS_Per_Economy_Results</text>
</g>
<!-- RWTS_Per_Economy_Results&#45;&gt;XLS_ConstVol_RWTS_Sorter -->
<g id="edge16" class="edge"><title>RWTS_Per_Economy_Results&#45;&gt;XLS_ConstVol_RWTS_Sorter</title>
<path fill="none" stroke="black" d="M210.267,-499.54C239.531,-496.056 271.852,-492.208 301.735,-488.651"/>
<polygon fill="black" stroke="black" points="302.252,-492.114 311.768,-487.456 301.425,-485.163 302.252,-492.114"/>
<text text-anchor="middle" x="261" y="-499.8" font-family="Times New Roman,serif" font-size="14.00">~200 assets</text>
</g>
<!-- RWTS_Combined_Results -->
<g id="node19" class="node"><title>RWTS_Combined_Results</title>
<polygon fill="none" stroke="orange" points="199,-475 27,-475 27,-439 199,-439 199,-475"/>
<text text-anchor="middle" x="113" y="-453.3" font-family="Times New Roman,serif" font-size="14.00">RWTS_Combined_Results</text>
</g>
<!-- RWTS_Combined_Results&#45;&gt;XLS_ConstVol_RWTS_Sorter -->
<g id="edge18" class="edge"><title>RWTS_Combined_Results&#45;&gt;XLS_ConstVol_RWTS_Sorter</title>
<path fill="none" stroke="black" d="M199.037,-462.496C231.004,-464.562 267.757,-466.937 301.439,-469.113"/>
<polygon fill="black" stroke="black" points="301.579,-472.63 311.784,-469.782 302.031,-465.644 301.579,-472.63"/>
</g>
<!-- XLS_ConstVol_RWTS_Sorter&#45;&gt;UncVol_Combined -->
<g id="edge17" class="edge"><title>XLS_ConstVol_RWTS_Sorter&#45;&gt;UncVol_Combined</title>
<path fill="none" stroke="black" d="M506.375,-476C521.532,-476 537.584,-476 553.836,-476"/>
<polygon fill="black" stroke="black" points="553.974,-479.5 563.974,-476 553.974,-472.5 553.974,-479.5"/>
</g>
<!-- XLS_ConstVol_RWTS_Sorter&#45;&gt;Correlation_Combined -->
<g id="edge19" class="edge"><title>XLS_ConstVol_RWTS_Sorter&#45;&gt;Correlation_Combined</title>
<path fill="none" stroke="black" d="M440.419,-457.989C465.333,-443.658 501.767,-423.647 535,-409 539.173,-407.161 543.414,-405.336 547.705,-403.528"/>
<polygon fill="black" stroke="black" points="549.277,-406.664 557.172,-399.598 546.594,-400.199 549.277,-406.664"/>
</g>
</g>
</svg>
